<svg xmlns="http://www.w3.org/2000/svg" viewBox="0 0 24 24">
  <path d="M12 0C11.4 0 11 0.4 11 1L11 2C11 2.6 11.4 3 12 3C12.6 3 13 2.6 13 2L13 1C13 0.4 12.6 0 12 0 z M 4.1992188 3.1992188C3.9492188 3.1992187 3.7 3.3 3.5 3.5C3.1 3.9 3.1 4.5003906 3.5 4.9003906L4.1992188 5.5996094C4.5992187 5.9996094 5.1996094 5.9996094 5.5996094 5.5996094C5.9996094 5.1996094 5.9996094 4.5992188 5.5996094 4.1992188L4.9003906 3.5C4.7003906 3.3 4.4492188 3.1992188 4.1992188 3.1992188 z M 19.800781 3.1992188C19.550781 3.1992188 19.299609 3.3 19.099609 3.5L18.400391 4.1992188C18.000391 4.5992187 18.000391 5.1996094 18.400391 5.5996094C18.800391 5.9996094 19.400781 5.9996094 19.800781 5.5996094L20.5 4.9003906C20.9 4.5003906 20.9 3.9 20.5 3.5C20.3 3.3 20.050781 3.1992188 19.800781 3.1992188 z M 12 5 A 7 7 0 0 0 5 12 A 7 7 0 0 0 12 19 A 7 7 0 0 0 19 12 A 7 7 0 0 0 12 5 z M 1 11C0.4 11 0 11.4 0 12C0 12.6 0.4 13 1 13L2 13C2.6 13 3 12.6 3 12C3 11.4 2.6 11 2 11L1 11 z M 22 11C21.4 11 21 11.4 21 12C21 12.6 21.4 13 22 13L23 13C23.6 13 24 12.6 24 12C24 11.4 23.6 11 23 11L22 11 z M 4.9003906 18.099609C4.6503906 18.099609 4.3992188 18.200391 4.1992188 18.400391L3.5 19.099609C3.1 19.499609 3.1 20.1 3.5 20.5C3.9 20.9 4.5003906 20.9 4.9003906 20.5L5.5996094 19.800781C5.9996094 19.400781 5.9996094 18.800391 5.5996094 18.400391C5.3996094 18.200391 5.1503906 18.099609 4.9003906 18.099609 z M 19.099609 18.099609C18.849609 18.099609 18.600391 18.200391 18.400391 18.400391C18.000391 18.800391 18.000391 19.400781 18.400391 19.800781L19.099609 20.5C19.499609 20.9 20.1 20.9 20.5 20.5C20.9 20.1 20.9 19.499609 20.5 19.099609L19.800781 18.400391C19.600781 18.200391 19.349609 18.099609 19.099609 18.099609 z M 12 21C11.4 21 11 21.4 11 22L11 23C11 23.6 11.4 24 12 24C12.6 24 13 23.6 13 23L13 22C13 21.4 12.6 21 12 21 z" fill="#969696" />
</svg>