<svg t="1738288716642" class="icon" viewBox="0 0 1024 1024" version="1.1" xmlns="http://www.w3.org/2000/svg"
     p-id="26789" width="200" height="200">
    <path d="M0.0128 0.002276m170.666287 0l682.66515 0q170.666287 0 170.666287 170.666287l0 682.66515q0 170.666287-170.666287 170.666287l-682.66515 0q-170.666287 0-170.666287-170.666287l0-682.66515q0-170.666287 170.666287-170.666287Z"
          fill="#FDDAD9" p-id="26790"></path>
    <path d="M807.947005 660.196364c-34.247035 17.863071-211.825307 90.851354-249.599446 110.56331-37.831027 19.711956-58.82298 19.512846-88.68958 5.26221C439.819823 761.714361 250.920687 685.398086 216.844318 669.1279 199.863023 661.049695 190.903042 654.137711 190.903042 647.680836V582.742314S436.890051 529.209988 476.598408 514.959353c39.679912-14.222191 53.475437-14.762634 87.267361-2.389328 33.791925 12.373306 235.860809 48.839003 269.254513 61.070087v63.999858c0 6.399986-7.736872 13.454192-25.173277 22.52795"
          fill="#8E2626" p-id="26791"></path>
    <path d="M807.947005 595.627619c-34.275479 17.891516-211.825307 90.851354-249.599446 110.591754-37.831027 19.711956-58.82298 19.512846-88.68958 5.233766-29.838156-14.279079-218.737292-90.595354-252.785216-106.86554-34.01948-16.241742-34.759034-27.477272-1.308442-40.533244 33.422148-13.084415 221.297286-86.812252 261.034087-101.062886 39.708356-14.222191 53.475437-14.791078 87.267361-2.389328 33.791925 12.373306 210.260866 82.630927 243.683014 94.862011 33.393704 12.231084 34.645256 22.328839 0.398222 40.163467"
          fill="#C3302B" p-id="26792"></path>
    <path d="M807.947005 555.151264c-34.247035 17.863071-211.825307 90.851354-249.599446 110.56331-37.831027 19.711956-58.82298 19.512846-88.68958 5.233766C439.819823 656.669261 250.920687 580.352986 216.844318 564.0828 199.863023 555.976151 190.903042 549.092611 190.903042 542.607292V477.697214S436.890051 424.164889 476.598408 409.914254c39.679912-14.222191 53.475437-14.762634 87.267361-2.389328 33.791925 12.373306 235.860809 48.839003 269.254513 61.070086v63.999858c0 6.399986-7.736872 13.454192-25.173277 22.52795"
          fill="#8E2626" p-id="26793"></path>
    <path d="M807.947005 490.610963c-34.275479 17.863071-211.825307 90.851354-249.599446 110.56331-37.831027 19.711956-58.82298 19.512846-88.68958 5.233766-29.838156-14.250635-218.737292-90.595354-252.785216-106.86554-34.01948-16.213297-34.759034-27.448828-1.308442-40.561688 33.422148-13.084415 221.297286-86.755363 261.034087-101.034442 39.708356-14.222191 53.475437-14.762634 87.267361-2.389328 33.791925 12.373306 210.260866 82.602483 243.683014 94.833567 33.393704 12.259528 34.645256 22.357284 0.398222 40.220355"
          fill="#C3302B" p-id="26794"></path>
    <path d="M807.947005 446.237728c-34.247035 17.863071-211.825307 90.822909-249.599446 110.56331-37.831027 19.711956-58.82298 19.512846-88.68958 5.233766C439.819823 547.755725 250.920687 471.43945 216.844318 455.169264 199.863023 447.034171 190.903042 440.179075 190.903042 433.722201V368.783678S436.890051 315.251353 476.598408 301.000718c39.679912-14.250635 53.475437-14.791078 87.267361-2.360884 33.791925 12.344861 235.860809 48.810558 269.254513 61.041642v63.999858c0 6.399986-7.736872 13.454192-25.173277 22.52795"
          fill="#8E2626" p-id="26795"></path>
    <path d="M807.947005 381.668983c-34.275479 17.891516-211.825307 90.851354-249.62789 110.591754-37.774138 19.683512-58.794536 19.512846-88.661136 5.233766C439.791378 483.215424 250.920687 406.899149 216.872763 390.628963 182.824838 374.358777 182.085284 363.151691 215.564321 350.067275 248.92958 336.98286 436.861607 263.283468 476.569963 249.032833c39.736801-14.222191 53.503881-14.791078 87.295806-2.389328 33.791925 12.373306 210.260866 82.630927 243.65457 94.862012 33.422148 12.231084 34.702145 22.328839 0.426666 40.163466"
          fill="#C3302B" p-id="26796"></path>
    <path d="M376.758629 335.077086c43.576792 0 78.904714 13.653303 78.904714 30.57771 0 16.895962-35.327921 30.57771-78.904714 30.57771-43.605236 0-78.933158-13.681747-78.933157-30.57771s35.327921-30.57771 78.933157-30.57771m142.876127 127.715272l-103.053993-42.72346 147.626339-22.641728-44.572346 65.393633m70.854954-144.269902l-55.210544 5.688876-12.373306 29.752823-19.967955-33.166149-63.715414-5.745765 47.502116-17.151961-14.22219-26.311053 44.543901 17.407961 41.983906-13.76708-11.349308 27.221273 42.808794 16.071075"
          fill="#FFFFFF" p-id="26797"></path>
    <path d="M655.741121 326.65755l87.409583 34.559923-87.32425 34.47459z" fill="#621B1C" p-id="26798"></path>
    <path d="M559.058669 364.915242l96.710896-38.257692 0.056889 69.062957-9.500424 3.69777z" fill="#972928"
          p-id="26799"></path>
</svg>