<svg version="1.0" xmlns="http://www.w3.org/2000/svg"
 width="155" height="45" viewBox="0 0 155 45">
<g transform="translate(0,45) scale(0.1,-0.1)"
fill="#FFFFFF" stroke="none">
<path d="M83 333 c-22 -4 -23 -8 -23 -124 l0 -119 34 0 c34 0 34 0 29 40 -7
53 13 53 35 0 15 -35 21 -40 49 -40 l33 0 -16 40 c-15 36 -15 43 1 84 15 38
15 48 3 72 -21 46 -70 62 -145 47z m85 -85 c3 -24 0 -28 -22 -28 -22 0 -26 4
-26 31 0 26 3 30 23 27 16 -2 23 -11 25 -30z"/>
<path d="M517 333 c-4 -3 -7 -24 -7 -45 0 -34 -2 -38 -18 -29 -25 13 -63 -7
-81 -43 -28 -59 28 -153 76 -128 10 6 25 7 32 3 7 -5 22 -6 32 -4 17 5 19 16
19 129 0 123 0 124 -23 124 -13 0 -27 -3 -30 -7z m-13 -171 c-13 -20 -25 -20
-38 1 -7 10 -5 21 4 32 12 15 15 15 29 0 12 -12 13 -19 5 -33z"/>
<path d="M843 333 l-53 -4 0 -119 c0 -118 0 -120 24 -126 36 -9 46 2 46 52 l0
44 41 0 c39 0 40 1 37 33 -3 30 -5 32 -40 29 -33 -2 -38 0 -38 18 0 20 4 21
47 14 45 -7 46 -6 40 17 -4 13 -7 30 -7 37 0 6 -10 11 -22 10 -13 -1 -47 -3
-75 -5z"/>
<path d="M601 317 c-17 -21 -3 -47 26 -47 21 0 24 4 21 27 -3 31 -29 41 -47
20z"/>
<path d="M1430 284 c0 -19 -4 -34 -10 -34 -5 0 -10 -11 -10 -25 0 -14 5 -25
10 -25 6 0 10 -23 10 -50 0 -43 3 -52 24 -61 17 -8 29 -8 45 0 27 15 27 47 1
54 -14 3 -20 14 -20 31 0 19 5 26 20 26 15 0 20 7 20 26 0 17 -6 28 -20 31
-13 3 -20 14 -20 28 0 16 -7 24 -25 27 -23 5 -25 2 -25 -28z"/>
<path d="M293 260 c-29 -12 -43 -40 -43 -87 0 -69 52 -107 114 -83 22 8 26 14
20 33 -9 30 -10 30 -31 19 -11 -6 -25 -7 -32 -3 -16 10 8 21 45 21 21 0 24 5
24 34 0 25 -7 40 -26 55 -29 23 -38 24 -71 11z m33 -68 c-22 -5 -30 3 -21 18
5 8 11 7 22 -2 15 -12 14 -13 -1 -16z"/>
<path d="M702 254 c-26 -18 -28 -44 -6 -85 15 -29 14 -31 -5 -36 -25 -6 -25
-11 -5 -38 13 -18 17 -19 41 -5 36 21 44 50 25 89 -14 31 -14 34 1 43 13 7 15
13 7 29 -13 23 -28 24 -58 3z"/>
<path d="M1130 260 c-33 -7 -62 -65 -54 -105 7 -35 47 -75 75 -75 11 0 34 14
51 30 27 27 30 36 25 71 -8 64 -43 92 -97 79z m40 -83 c0 -13 -3 -26 -6 -30
-12 -12 -34 6 -34 29 0 17 6 24 20 24 14 0 20 -7 20 -23z"/>
<path d="M595 252 c-3 -3 -5 -41 -5 -84 l0 -78 30 0 30 0 0 84 c0 82 0 84 -25
84 -13 0 -27 -3 -30 -6z"/>
<path d="M964 246 c-3 -7 -4 -44 -2 -82 3 -67 4 -69 31 -72 26 -3 27 -2 27 43
0 40 3 47 26 55 20 8 25 16 22 36 -3 23 -8 26 -51 30 -33 2 -49 -1 -53 -10z"/>
<path d="M1254 252 c-6 -4 -9 -37 -6 -84 4 -74 5 -78 28 -78 21 0 23 5 26 52
2 41 7 54 21 56 14 3 17 -5 17 -52 0 -56 0 -56 30 -56 l30 0 0 66 c0 36 -5 74
-10 85 -12 22 -59 26 -78 7 -9 -9 -12 -9 -12 0 0 13 -29 16 -46 4z"/>
</g>
</svg>
