<svg t="1738589517736" class="icon" viewBox="0 0 1024 1024" version="1.1" xmlns="http://www.w3.org/2000/svg" p-id="36415" width="200" height="200"><path d="M730.803 765.511s13.43 99.555-37.329 169.175c0 0 8.954 20.206 26.124 13.467 17.17-6.728 26.874-11.967 29.863-22.457 2.977-10.478 31.35-20.206 34.34-19.456 2.976 0.75 51.497 79.348 47.032 103.293-4.489 23.957-22.397 8.24-28.374 4.5-5.978-3.75-35.09-27.695-35.09-27.695s-53.736 42.663-83.587 29.184c-29.875-13.467-45.544-28.446-45.544-28.446s-94.804 33.697-180.641 7.502c-85.85-26.207-88.826-39.686-88.826-39.686s-72.656 5.74-170.698 66.12c0 0-1.489 2-5.228-0.75-3.726-2.74-63.94-48.403-59.963-80.587 0 0 3.727-4.24 27.624 5.989 23.885 10.228 34.828 17.217 35.828 16.967 0.988-0.25 42.544-46.663 100.269-66.87 0 0-95.542-98.303-90.565-338.836 0 0-109.484-70.858-160.244-199.609 0 0-42.793-42.924-8.954-88.826 33.84-45.913 100.519-26.957 111.473 13.967 10.943 40.925-10.954 65.87-10.954 65.87s49.771 96.803 84.599 122.76c0 0 12.943-175.651 129.393-248.51 0 0 53.581-114.783 137.264-165.674 0 0-54.653 86.826-38.734 118.76 0 0 78.622-173.663 195.072-172.65 0 0-111.473 63.868-118.438 166.661 0 0 50.759-74.847 118.438-68.858 0 0-59.713 40.913-40.805 75.848 0 0 109.485 13.979 157.256 99.804 47.77 85.837 39.805 182.653 13.93 260.489 0 0 98.543 13.979 170.199 117.772 0 0 95.542 42.913 26.874 111.783 0 0-13.931 13.978-44.794 13.978-30.851 0-64.69-49.914-52.748-86.837 0 0-24.885-51.89-116.45-87.826L730.79 765.511z" fill="#F99716" p-id="36416"></path><path d="M333.431 445.13s-1.988 45.914-18.908 83.837c-16.92 37.936-30.851 67.87 0 85.838 30.85 17.967 96.542 5.989 108.484 13.967 11.943 7.977 75.681 34.578 100.519 17.967 16.432-10.978 28.862-18.956 19.908-112.783-8.954-93.815-43.793-109.782-85.587-121.76-41.805-11.979-113.997-27.505-124.416 32.934" fill="#D84005" p-id="36417"></path><path d="M543.434 533.956a372.54 372.54 0 0 0-0.774-7.203c-58.891-20.29-90.04-17.658-145.527-13.979-37.137 2.453-71.692 22.314-91.16 35.745-11.906 28.696-16.788 51.533 8.55 66.286 30.85 17.967 96.542 5.989 108.484 13.967 11.943 7.977 75.681 34.578 100.519 17.98 16.432-10.99 28.862-18.98 19.908-112.796" fill="#ED4E1D" p-id="36418"></path><path d="M607.137 401.098s24.385 6.109 23.385 29.065c-0.75 17.29-3.477 35.15-19.658 42.699a34.304 34.304 0 0 1-37.507-5.835c-7.776-7.168-14.241-19.146-9.014-38.364 10.442-38.424 42.794-27.565 42.794-27.565" fill="#D84005" p-id="36419"></path><path d="M643.977 413.196a8.823 8.823 0 0 1-0.893-0.036c-48.033-4.989-61.285-40.495-61.833-42.008a8.454 8.454 0 1 1 15.908-5.786c0.476 1.214 10.668 27.064 47.675 30.898a8.478 8.478 0 0 1-0.857 16.932m-372.76-31.935a8.478 8.478 0 1 1-0.452-16.967c37.22-2.024 42.984-15.896 43.008-16.027a8.454 8.454 0 1 1 16.431 4.108c-0.667 2.667-7.954 26.124-58.51 28.874a8.24 8.24 0 0 1-0.477 0.012" fill="#D84005" p-id="36420"></path><path d="M308.545 375.272s25.886 14.467 3.49 53.391c-22.386 38.936-41.116 11.312-44.295 4-4.977-11.478-3.298-28.1 14.253-49.949 10.276-12.788 26.552-7.442 26.552-7.442" fill="#D84005" p-id="36421"></path><path d="M626.045 422.055c0 6.132-5.12 11.109-11.443 11.109-6.322 0-11.454-4.977-11.454-11.11 0-6.12 5.12-11.097 11.454-11.097 6.311 0 11.443 4.978 11.443 11.098m-39.817 29.493a8.692 8.692 0 0 1-8.811 8.55 8.692 8.692 0 0 1-8.811-8.55 8.692 8.692 0 0 1 8.81-8.549 8.692 8.692 0 0 1 8.812 8.55M284.22 426.507c-1.596 4.441-5.24 7.192-8.157 6.144-2.905-1.048-3.977-5.49-2.393-9.942 1.584-4.442 5.239-7.192 8.144-6.156 2.918 1.047 3.99 5.5 2.394 9.942m30.374-32.851c0.608 4.68-2.024 8.894-5.906 9.406-3.881 0.512-7.537-2.858-8.156-7.549-0.619-4.68 2.024-8.882 5.906-9.406 3.882-0.512 7.525 2.857 8.144 7.549" fill="#F5F5F5" p-id="36422"></path><path d="M206.705 367.902c-2.62 3-7.096 9.609-8.216 16.217 0 0 25.6-27.79 51.986-30.303l-12.621 37.471s-31.149 5.06-31.899 12.92c-0.75 7.858 5.227 8.608 9.335 8.608 4.096 0 25.374 3.739 33.22 10.109 7.835 6.358 28.399 19.456 38.067 18.337 9.669-1.12 12.681-1.12 23.886-14.967 0 0 0.738 7.477-3.74 11.978-4.476 4.489-15.074 21.706-42.983 11.967-27.922-9.728-29.053-14.968-45.092-20.957-16.05-5.989-33.22-4.453-33.59-31.982-0.38-27.529 21.647-35.757 21.647-35.757s2.62 3.37 0 6.359zM598.6 468.206s22.885-1.595 62.702-32.732c39.805-31.137 109.818 11.157 123.415 13.276 13.586 2.12 28.363 12.479 78.622-22.456s95.554-11.479 105.996 12.978c10.454 24.445-23.385 38.924-53.248 18.956-29.85-19.956-75.633 19.468-75.633 19.468s32.34 13.967 46.27 5.477c0 0 6.478 3.5 0.5 9.49-5.965 5.99-66.679 11.36-108.484-19.027-41.793-30.363-69.668-41.353-157.755 5.06 0 0-25.434 3.93-34.328-5.06-8.895-8.978 11.942-5.418 11.942-5.418M861.35 387.37s5.478 3.738 2.977 11.347c-2.476 7.62-15.42 9.859-18.408 0-2.976-9.847 7.966-16.836 15.432-11.347m50.76-28.196s12.93 2.238 16.907 11.228c3.989 8.978-1.476 21.957-14.92 19.956-13.43-1.988-16.92-9.025-17.42-15.479-0.487-6.477 4.478-13.967 15.432-15.717" fill="#50E6FF" p-id="36423"></path></svg>