<?xml version="1.0" encoding="utf-8"?>
<svg  version="1.1" xmlns="http://www.w3.org/2000/svg"   viewBox="0 0 700 600"  width="70" height="60">
<g>
	<path fill="#EDA200" d="M521.8,488.9L492,444.9l-18.7,8.1v57l-38.9,16.9V365l59.4-25.8c34.6-15,63.3-15.7,63.3,23.4
		c0,23.7-11.1,43.8-27.8,58.8l36.1,48.5L521.8,488.9z M473.3,422.3l17.4-7.6c18.5-8,28.3-20.3,28.3-35.5c0-15.2-9.8-16-28.3-8
		l-17.4,7.6V422.3z"/>
    <path fill="#d81e06" d="M588.4,298.2l103.3-44.8v32.2l-64.4,27.9V349l55.3-24v32.4l-55.3,24v61.8l-38.9,16.9V298.2z"/>
</g>
    <g>
	<g>
		<path fill="#d81e06" d="M683.8,167.7c0.3-5.6-7.1-10.5-21.8-16c-28.7-10.5-180.4-70.9-209.4-81.5c-29-10.6-40.9-10.2-75,2.1
			C343.4,84.5,182,147.8,153.2,159c-14.4,5.7-21.4,10.9-21.2,16.4v55.8c0,5.6,7.7,11.5,22.3,18.4c29.2,14,191.6,79.6,217.3,91.8
			c25.7,12.3,43.7,12.4,76.2-4.5c32.5-16.9,185-79.7,214.5-95c15-7.8,21.6-13.9,21.6-19.4v-55H683.8z M390.5,114.7l-12.4-22.8
			l38.6,15.1L453,95l-9.8,23.6l37.1,13.9l-47.8,5l-10.7,25.8l-17.3-28.7l-55.2-5L390.5,114.7z M226.8,173.3
			c0-14.6,30.6-26.5,68.4-26.5v0c37.8,0,68.3,11.8,68.3,26.5c0,14.6-30.6,26.5-68.3,26.5S226.8,187.9,226.8,173.3z M418.9,257.5
			l-89.2-37h0l127.9-19.6L418.9,257.5z M536.9,199.4l-8.2,3.2l-75.6-29.9l83.7-33.1l75.7,29.9h0L536.9,199.4z"/>
        <path fill="#d81e06" d="M154.4,344.1c29.2,14,191.6,79.6,217.3,91.8c19.7,9.4,34.9,11.7,55.5,4.6v-55.8c-20.7,7.1-35.9,4.8-55.5-4.6
			c-25.7-12.3-188-77.9-217.3-91.8c-14.6-7-22.1-12.9-22.3-18.4v55.8C132.1,331.2,139.7,337.1,154.4,344.1z"/>
        <polygon fill="#d81e06" points="683.8,262 683.8,262 683.8,262 		"/>
	</g>
        <path fill="#d81e06" d="M427.2,532.3v-56.7c-20.7,7.1-35.9,4.8-55.5-4.6c-25.7-12.3-188-77.9-217.3-91.8c-14.6-7-22.1-12.9-22.3-18.4
		v55.8c0,5.6,7.7,11.5,22.3,18.5c29.2,14,191.6,79.6,217.3,91.8C397.3,539.1,427.2,532.3,427.2,532.3z"/>
</g>
</svg>
