<svg class="icon" viewBox="0 0 1024 1024" version="1.1" xmlns="http://www.w3.org/2000/svg"
     width="16" height="16">
    <path d="M524.8 648.533333c4.266667 12.8 17.066667 21.333333 29.866667 21.333334s25.6-8.533333 29.866666-21.333334l34.133334-106.666666H682.666667c17.066667 0 34.133333-12.8 34.133333-34.133334s-12.8-34.133333-34.133333-34.133333h-85.333334c-12.8 0-25.6 8.533333-29.866666 21.333333l-12.8 42.666667-55.466667-166.4c-4.266667-12.8-17.066667-21.333333-29.866667-21.333333s-25.6 8.533333-29.866666 21.333333l-34.133334 106.666667H341.333333c-17.066667 0-34.133333 12.8-34.133333 34.133333s12.8 34.133333 34.133333 34.133333h85.333334c12.8 0 25.6-8.533333 29.866666-21.333333l12.8-38.4 55.466667 162.133333z"
    ></path>
    <path d="M853.333333 384c0-187.733333-153.6-341.333333-341.333333-341.333333S170.666667 196.266667 170.666667 384c-93.866667 0-170.666667 76.8-170.666667 170.666667s76.8 170.666667 170.666667 170.666666h42.666666c25.6 0 42.666667-17.066667 42.666667-42.666666V384c0-140.8 115.2-256 256-256s256 115.2 256 256v256c0 140.8-115.2 256-256 256-25.6 0-42.666667 17.066667-42.666667 42.666667s17.066667 42.666667 42.666667 42.666666c157.866667 0 290.133333-110.933333 328.533333-256h12.8c93.866667 0 170.666667-76.8 170.666667-170.666666s-76.8-170.666667-170.666667-170.666667zM85.333333 554.666667c0-46.933333 38.4-85.333333 85.333334-85.333334v170.666667c-46.933333 0-85.333333-38.4-85.333334-85.333333z m768 85.333333v-170.666667c46.933333 0 85.333333 38.4 85.333334 85.333334s-38.4 85.333333-85.333334 85.333333z"
    ></path>
</svg>
