<svg class="icon" viewBox="0 0 1024 1024" version="1.1" xmlns="http://www.w3.org/2000/svg"
     width="16" height="16">
    <path d="M853.333333 725.333333h-42.666666c-25.6 0-42.666667-17.066667-42.666667-42.666666v-256c0-25.6 17.066667-42.666667 42.666667-42.666667h42.666666c93.866667 0 170.666667 76.8 170.666667 170.666667s-76.8 170.666667-170.666667 170.666666z m0-85.333333z m0-170.666667v170.666667c46.933333 0 85.333333-38.4 85.333334-85.333333s-38.4-85.333333-85.333334-85.333334zM162.133333 725.333333c-4.266667 0-4.266667 0 0 0-93.866667-8.533333-162.133333-81.066667-162.133333-170.666666 0-93.866667 76.8-170.666667 170.666667-170.666667h42.666666c25.6 0 42.666667 17.066667 42.666667 42.666667s-17.066667 42.666667-42.666667 42.666666H170.666667c-46.933333 0-85.333333 38.4-85.333334 85.333334 0 42.666667 34.133333 81.066667 76.8 85.333333 25.6 0 42.666667 21.333333 38.4 46.933333 0 21.333333-17.066667 38.4-38.4 38.4z"
    ></path>
    <path d="M512 981.333333c-25.6 0-42.666667-17.066667-42.666667-42.666666s17.066667-42.666667 42.666667-42.666667c140.8 0 256-115.2 256-256V392.533333c0-25.6 17.066667-42.666667 42.666667-42.666666s42.666667 17.066667 42.666666 42.666666V640c0 187.733333-153.6 341.333333-341.333333 341.333333zM213.333333 674.133333c-25.6 0-42.666667-17.066667-42.666666-42.666666V384c0-187.733333 153.6-341.333333 341.333333-341.333333 76.8 0 149.333333 25.6 209.066667 72.533333 17.066667 12.8 21.333333 42.666667 8.533333 59.733333s-42.666667 21.333333-59.733333 8.533334C622.933333 145.066667 567.466667 128 512 128 371.2 128 256 243.2 256 384v247.466667c0 21.333333-17.066667 42.666667-42.666667 42.666666zM85.333333 981.333333c-12.8 0-21.333333-4.266667-29.866666-12.8-17.066667-17.066667-17.066667-42.666667 0-59.733333l853.333333-853.333333c17.066667-17.066667 42.666667-17.066667 59.733333 0s17.066667 42.666667 0 59.733333l-853.333333 853.333333c-8.533333 8.533333-17.066667 12.8-29.866667 12.8z"
    ></path>
</svg>
