<svg  class="icon" viewBox="0 0 1024 1024" version="1.1" xmlns="http://www.w3.org/2000/svg"
     width="200" height="200">
    <path d="M768 576h-64v-128h64c105.88 0 192-86.12 192-192s-86.12-192-192-192-192 86.12-192 192v64h-128v-64c0-105.88-86.12-192-192-192S64 150.12 64 256s86.12 192 192 192h64v128H256c-105.88 0-192 86.12-192 192s86.12 192 192 192 192-86.12 192-192v-64h128v64c0 105.88 86.12 192 192 192s192-86.12 192-192-86.2-192-192-192z m-64-320c0-35.32 28.68-64 64-64s64 28.68 64 64-28.68 64-64 64h-64v-64zM320 768c0 35.32-28.68 64-64 64s-64-28.68-64-64 28.68-64 64-64h64v64z m0-448H256c-35.32 0-64-28.6-64-64s28.68-64 64-64 64 28.68 64 64v64z m256 256h-128v-128h128v128z m192 256c-35.32 0-64-28.68-64-64v-64h64c35.32 0 64 28.68 64 64s-28.6 64-64 64z"
          ></path>
</svg>