<svg  class="icon" viewBox="0 0 1024 1024" version="1.1" xmlns="http://www.w3.org/2000/svg" p-id="3620"
     width="200" height="200">
    <path d="M768 597.333333h-85.333333v-170.666666h85.333333c93.866667 0 170.666667-76.8 170.666667-170.666667s-76.8-170.666667-170.666667-170.666667-170.666667 76.8-170.666667 170.666667v85.333333h-170.666666V256c0-93.866667-76.8-170.666667-170.666667-170.666667S85.333333 162.133333 85.333333 256s76.8 170.666667 170.666667 170.666667h85.333333v170.666666H256c-93.866667 0-170.666667 76.8-170.666667 170.666667s76.8 170.666667 170.666667 170.666667 170.666667-76.8 170.666667-170.666667v-85.333333h170.666666v85.333333c0 93.866667 76.8 170.666667 170.666667 170.666667s170.666667-76.8 170.666667-170.666667-76.8-170.666667-170.666667-170.666667z m-85.333333-341.333333c0-46.933333 38.4-85.333333 85.333333-85.333333s85.333333 38.4 85.333333 85.333333-38.4 85.333333-85.333333 85.333333h-85.333333V256zM341.333333 768c0 46.933333-38.4 85.333333-85.333333 85.333333s-85.333333-38.4-85.333333-85.333333 38.4-85.333333 85.333333-85.333333h85.333333v85.333333zM341.333333 341.333333H256c-46.933333 0-85.333333-38.4-85.333333-85.333333s38.4-85.333333 85.333333-85.333333 85.333333 38.4 85.333333 85.333333v85.333333z m256 256h-170.666666v-170.666666h170.666666v170.666666z m170.666667 256c-46.933333 0-85.333333-38.4-85.333333-85.333333v-85.333333h85.333333c46.933333 0 85.333333 38.4 85.333333 85.333333s-38.4 85.333333-85.333333 85.333333z"
           ></path>
</svg>