<?xml version="1.0" standalone="no"?><!DOCTYPE svg PUBLIC "-//W3C//DTD SVG 1.1//EN"
        "http://www.w3.org/Graphics/SVG/1.1/DTD/svg11.dtd">
<svg t="1655004147971" class="icon" viewBox="0 0 1024 1024" version="1.1" xmlns="http://www.w3.org/2000/svg" p-id="2274"
     width="16" height="16">
    <path d="M953.437043 74.621715l-4.031877-4.031877a242.744566 242.744566 0 0 0-342.325516 0L388.974329 288.759157a242.744566 242.744566 0 0 0 0 342.261518l4.031877 4.031877c7.807761 7.871759 16.127506 14.911543 24.767241 21.439343l79.805556-79.805556a130.683998 130.683998 0 0 1-26.1112-20.095385l-4.031876-4.031876a131.195982 131.195982 0 0 1 0-185.402322L685.477249 149.115433a131.195982 131.195982 0 0 1 185.402322 0l4.031877 4.031877a131.25998 131.25998 0 0 1 0 185.402322L776.290468 437.106614a338.549632 338.549632 0 0 1 24.511249 132.347946l152.635326-152.571327a242.744566 242.744566 0 0 0 0-342.325516zM631.078915 388.916089a240.056648 240.056648 0 0 0-24.703243-21.439343L526.506118 447.3463c9.279716 5.503831 18.111445 12.159628 26.1112 20.095385l4.031876 4.031876a131.195982 131.195982 0 0 1 0 185.402322L338.607872 874.853208a131.195982 131.195982 0 0 1-185.402322 0l-4.031877-4.031877a131.25998 131.25998 0 0 1 0-185.402322L247.794653 586.862027a338.549632 338.549632 0 0 1-24.511249-132.347946L70.648078 607.02141a242.744566 242.744566 0 0 0 0 342.325516l4.031877 4.031877a242.808564 242.808564 0 0 0 342.325516 0l218.105321-218.105321a242.744566 242.744566 0 0 0 0-342.325516l-4.031877-4.031877z"
          fill="#d81e06" p-id="2275"></path>
</svg>
