<svg  class="icon" viewBox="0 0 1024 1024" version="1.1" xmlns="http://www.w3.org/2000/svg"
     width="200" height="200">
    <path d="M637.44 644.266667H442.88c-5.632 0-10.24-4.608-10.24-10.24V440.32c0-5.632 4.608-10.24 10.24-10.24h194.56c5.632 0 10.24 4.608 10.24 10.24v193.706667c0 5.632-4.608 10.24-10.24 10.24z"
          fill="#FFDD3F" ></path>
    <path d="M762.88 343.04H354.133333c-5.632 0-10.24 4.608-10.24 10.24v346.453333c0 5.632 4.608 10.24 10.24 10.24h408.746667c5.632 0 10.24-4.608 10.24-10.24V353.28c0-5.632-4.608-10.24-10.24-10.24zM647.68 634.026667c0 5.632-4.608 10.24-10.24 10.24H407.04c-5.632 0-10.24-4.608-10.24-10.24V403.626667c0-5.632 4.608-10.24 10.24-10.24h204.30848C631.330987 393.386667 647.68 409.73568 647.68 429.718187V634.026667z"
          fill="#FFDD3F" ></path>
    <path d="M600.23296 375.806293h-177.493333c-26.391893 0-47.786667 21.394773-47.786667 47.786667v177.493333c0 26.391893 21.394773 47.786667 47.786667 47.786667h207.36c9.42592 0 17.066667-7.640747 17.066666-17.066667s-7.640747-17.066667-17.066666-17.066666h-207.36c-7.540907 0-13.653333-6.112427-13.653334-13.653334v-177.493333c0-7.540907 6.112427-13.653333 13.653334-13.653333h177.493333c7.540907 0 13.653333 6.112427 13.653333 13.653333v143.36c0 9.42592 7.640747 17.066667 17.066667 17.066667s17.066667-7.640747 17.066667-17.066667v-143.36c0-26.391893-21.394773-47.786667-47.786667-47.786667z"
          fill="#F39202" ></path>
    <path d="M800.256853 529.406293c9.42336 0 17.066667-7.639893 17.066667-17.066666 0-9.42336-7.643307-17.066667-17.066667-17.066667h-56.663893v-68.266667h56.663893c9.42336 0 17.066667-7.639893 17.066667-17.066666 0-9.42336-7.643307-17.066667-17.066667-17.066667h-56.663893v-64.853333c0-26.389333-21.393067-47.786667-47.786667-47.786667h-64.853333V223.573333c0-9.426773-7.639893-17.066667-17.066667-17.066666-9.42336 0-17.066667 7.639893-17.066666 17.066666v56.659627h-68.266667V223.573333c0-9.426773-7.639893-17.066667-17.066667-17.066666-9.42336 0-17.066667 7.639893-17.066666 17.066666v56.659627h-68.266667V223.573333c0-9.426773-7.639893-17.066667-17.066667-17.066666-9.42336 0-17.066667 7.639893-17.066666 17.066666v56.659627h-64.853334c-26.389333 0-47.786667 21.397333-47.786666 47.786667v64.853333H222.72c-9.426773 0-17.066667 7.643307-17.066667 17.066667 0 9.426773 7.639893 17.066667 17.066667 17.066666h56.659627v68.266667H222.72c-9.426773 0-17.066667 7.643307-17.066667 17.066667 0 9.426773 7.639893 17.066667 17.066667 17.066666h56.659627v68.266667H222.72c-9.426773 0-17.066667 7.643307-17.066667 17.066667 0 9.426773 7.639893 17.066667 17.066667 17.066666h56.659627v64.853334c0 26.3936 21.397333 47.786667 47.786666 47.786666h64.853334v56.663894c0 9.42336 7.643307 17.066667 17.066666 17.066666 9.426773 0 17.066667-7.643307 17.066667-17.066666v-56.663894h68.266667v56.663894c0 9.42336 7.643307 17.066667 17.066666 17.066666 9.426773 0 17.066667-7.643307 17.066667-17.066666v-56.663894h68.266667v56.663894c0 9.42336 7.643307 17.066667 17.066666 17.066666 9.426773 0 17.066667-7.643307 17.066667-17.066666v-56.663894h64.853333c26.3936 0 47.786667-21.393067 47.786667-47.786666v-64.853334h56.663893c9.42336 0 17.066667-7.639893 17.066667-17.066666 0-9.42336-7.643307-17.066667-17.066667-17.066667h-56.663893v-68.266667h56.663893z m-90.797226 167.253334c0 7.530667-6.122667 13.653333-13.653334 13.653333h-368.64c-7.5264 0-13.653333-6.122667-13.653333-13.653333v-368.64c0-7.5264 6.126933-13.653333 13.653333-13.653334h368.64c7.530667 0 13.653333 6.126933 13.653334 13.653334v368.64z m0 0"
          fill="#F39202"></path>
</svg>