<svg t="1737779146058" class="icon" viewBox="0 0 1024 1024" version="1.1" xmlns="http://www.w3.org/2000/svg" p-id="9643"
     width="256" height="256">
    <path d="M640 341.333333H384c-25.6 0-42.666667 17.066667-42.666667 42.666667v256c0 25.6 17.066667 42.666667 42.666667 42.666667h256c25.6 0 42.666667-17.066667 42.666667-42.666667V384c0-25.6-17.066667-42.666667-42.666667-42.666667z m-42.666667 256h-170.666666v-170.666666h170.666666v170.666666z"
          fill="#00000" p-id="9644"></path>
    <path d="M938.666667 597.333333h-42.666667v-170.666666h42.666667c25.6 0 42.666667-17.066667 42.666666-42.666667s-17.066667-42.666667-42.666666-42.666667h-42.666667V256c0-72.533333-55.466667-128-128-128h-85.333333V85.333333c0-25.6-17.066667-42.666667-42.666667-42.666666s-42.666667 17.066667-42.666667 42.666666v42.666667h-170.666666V85.333333c0-25.6-17.066667-42.666667-42.666667-42.666666s-42.666667 17.066667-42.666667 42.666666v42.666667H256C183.466667 128 128 183.466667 128 256v85.333333H85.333333c-25.6 0-42.666667 17.066667-42.666666 42.666667s17.066667 42.666667 42.666666 42.666667h42.666667v170.666666H85.333333c-25.6 0-42.666667 17.066667-42.666666 42.666667s17.066667 42.666667 42.666666 42.666667h42.666667v85.333333c0 72.533333 55.466667 128 128 128h85.333333v42.666667c0 25.6 17.066667 42.666667 42.666667 42.666666s42.666667-17.066667 42.666667-42.666666v-42.666667h170.666666v42.666667c0 25.6 17.066667 42.666667 42.666667 42.666666s42.666667-17.066667 42.666667-42.666666v-42.666667h85.333333c72.533333 0 128-55.466667 128-128v-85.333333h42.666667c25.6 0 42.666667-17.066667 42.666666-42.666667s-17.066667-42.666667-42.666666-42.666667z m-128 170.666667c0 25.6-17.066667 42.666667-42.666667 42.666667H256c-25.6 0-42.666667-17.066667-42.666667-42.666667V256c0-25.6 17.066667-42.666667 42.666667-42.666667h512c25.6 0 42.666667 17.066667 42.666667 42.666667v512z"
          fill="#00000" p-id="9645"></path>
</svg>