<svg t="1715143273562" class="icon" viewBox="0 0 1024 1024" version="1.1" xmlns="http://www.w3.org/2000/svg"
     p-id="42703" width="200" height="200">
    <path d="M1024 307.2q0 43.8272-43.8784 43.8784h-146.2784q-43.9296 0-43.8784-43.8784 0-43.8272 43.8784-43.8784h146.2784q43.8784 0 43.8784 43.8784zM234.0352 307.2q0 43.8272-43.8784 43.8784H43.8784Q0 351.0784 0 307.2q0-43.8272 43.8784-43.8784h146.2784q43.9296 0 43.8784 43.8784zM1024 512q0 43.8272-43.8784 43.8784h-146.2784q-43.9296 0-43.8784-43.8784 0-43.8272 43.8784-43.8784h146.2784q43.8784 0 43.8784 43.8784zM234.0352 512q0 43.8272-43.8784 43.8784H43.8784Q0 555.8784 0 512q0-43.8272 43.8784-43.8784h146.2784q43.9296 0 43.8784 43.8784zM1024 716.8q0 43.8272-43.8784 43.8784h-146.2784q-43.9296 0-43.8784-43.8784 0-43.8272 43.8784-43.8784h146.2784q43.8784 0 43.8784 43.8784zM234.0352 716.8q0 43.8272-43.8784 43.8784H43.8784Q0 760.6784 0 716.8q0-43.8272 43.8784-43.8784h146.2784q43.9296 0 43.8784 43.8784zM307.2 0q43.8272 0 43.8784 43.8784v146.2784q0 43.9296-43.8784 43.8784-43.8272 0-43.8784-43.8784V43.8784Q263.3216 0 307.2 0zM307.2 789.9648q43.8272 0 43.8784 43.8784v146.2784q0 43.8784-43.8784 43.8784-43.8272 0-43.8784-43.8784v-146.2784q0-43.9296 43.8784-43.8784zM512 0q43.8272 0 43.8784 43.8784v146.2784q0 43.9296-43.8784 43.8784-43.8272 0-43.8784-43.8784V43.8784Q468.1216 0 512 0zM512 789.9648q43.8272 0 43.8784 43.8784v146.2784q0 43.8272-43.8784 43.8784-43.8272 0-43.8784-43.8784v-146.2784q0-43.9296 43.8784-43.8784zM716.8 0q43.8272 0 43.8784 43.8784v146.2784q0 43.9296-43.8784 43.8784-43.8272 0-43.8784-43.8784V43.8784Q672.9216 0 716.8 0zM716.8 789.9648q43.8272 0 43.8784 43.8784v146.2784q0 43.8272-43.8784 43.8784-43.8272 0-43.8784-43.8784v-146.2784q0-43.9296 43.8784-43.8784z"
          fill="#A0ADC8" p-id="42704"></path>
    <path d="M204.8 146.2784h614.4q58.5216 0 58.5216 58.5216v614.4q0 58.5216-58.5216 58.5216H204.8q-58.5216 0-58.5216-58.5216V204.8q0-58.5216 58.5216-58.5216z"
          fill="#A0ADC8" p-id="42705"></path>
    <path d="M321.8432 292.5568h380.3136q29.2864 0 29.2864 29.2864v380.3136q0 29.2864-29.2864 29.2864H321.8432q-29.2864 0-29.2864-29.2864V321.8432q0-29.2352 29.2864-29.2864z"
          fill="#f2a942" p-id="42706"></path>
</svg>