<?xml version="1.0" standalone="no"?><!DOCTYPE svg PUBLIC "-//W3C//DTD SVG 1.1//EN"
        "http://www.w3.org/Graphics/SVG/1.1/DTD/svg11.dtd">
<svg class="icon" viewBox="0 0 1024 1024" version="1.1" xmlns="http://www.w3.org/2000/svg"
     width="16" height="16">
    <path d="M870.4 661.312H960v59.712h-89.6v89.6c0 41.216-18.496 59.712-59.712 59.712h-89.6V960h-59.712v-89.6H541.888V960h-59.776v-89.6H362.688V960h-59.776v-89.6h-89.6c-41.216 0-59.712-18.496-59.712-59.712v-89.6H64v-59.712h89.6V541.888H64v-59.776h89.6V362.688H64v-59.712h89.6v-89.6c0-41.28 18.496-59.776 59.712-59.776h89.6V64h59.712v89.6h119.488V64h59.712v89.6h119.488V64h59.712v89.6h89.6c41.216 0 59.712 18.496 59.712 59.712v89.6H960v59.712h-89.6v119.488H960v59.712h-89.6v119.488z m-59.712-448H213.312v597.312h597.312V213.312zM332.8 302.912h358.4c20.608 0 29.888 9.216 29.888 29.888v358.4c0 20.608-9.28 29.888-29.888 29.888H332.8c-20.608 0-29.888-9.28-29.888-29.888V332.8c0-20.608 9.28-29.888 29.888-29.888z"
          fill="#d81e06"></path>
</svg>
