<?xml version="1.0" standalone="no"?><!DOCTYPE svg PUBLIC "-//W3C//DTD SVG 1.1//EN"
        "http://www.w3.org/Graphics/SVG/1.1/DTD/svg11.dtd">
<svg t="1654346169541" class="icon" viewBox="0 0 1024 1024" version="1.1" xmlns="http://www.w3.org/2000/svg"
     p-id="15108" xmlns:xlink="http://www.w3.org/1999/xlink" width="16" height="16">
    <path d="M490.208 193.088l33.568 0 0 134.272-33.568 0 0-134.272z" p-id="15109" fill="#b71905"></path>
    <path d="M741.952 293.792c0-129.792-105.216-234.976-234.976-234.976-129.792 0-234.976 105.184-234.976 234.976 0 99.936 62.528 185.12 150.528 219.072l0 452.288 167.84 0 0-116.96 50.88-50.88-50.88-50.88 0-66.08 84.448-84.448-83.136-83.136c87.84-34.016 150.272-119.136 150.272-218.976zM579.552 481.472l-22.752 8.8 0 35.104 70.496 70.56-70.528 70.528 0 93.888 36.96 36.992-36.96 36.992 0 97.312-100.704 0 0-441.76-21.504-8.288c-78.368-30.24-129.024-103.904-129.024-187.744 0-111.072 90.336-201.408 201.408-201.408 111.04 0 201.408 90.336 201.408 201.408 0 83.712-50.592 157.376-128.832 187.68z"
          p-id="15110" fill="#b71905"></path>
</svg>
