<?xml version="1.0" standalone="no"?><!DOCTYPE svg PUBLIC "-//W3C//DTD SVG 1.1//EN"
        "http://www.w3.org/Graphics/SVG/1.1/DTD/svg11.dtd">
<svg t="1654346463896" class="icon" viewBox="0 0 1024 1024" version="1.1" xmlns="http://www.w3.org/2000/svg"
     p-id="20358" xmlns:xlink="http://www.w3.org/1999/xlink" width="16" height="16">
    <defs>
        <style type="text/css">@font-face { font-family: feedback-iconfont; src:
            url("//at.alicdn.com/t/font_1031158_u69w8yhxdu.woff2?t=1630033759944") format("woff2"),
            url("//at.alicdn.com/t/font_1031158_u69w8yhxdu.woff?t=1630033759944") format("woff"),
            url("//at.alicdn.com/t/font_1031158_u69w8yhxdu.ttf?t=1630033759944") format("truetype"); }
        </style>
    </defs>
    <path d="M941.590594 896.266827 125.566322 896.266827 125.566322 80.177064c0-12.017708-9.710153-21.665439-21.664416-21.665439-11.997242 0-21.665439 9.648754-21.665439 21.665439l0 837.751109c0 11.932774 9.66922 21.666462 21.665439 21.666462l837.688687 0c11.974729 0 21.666462-9.733689 21.666462-21.666462C963.257056 905.912511 953.566346 896.266827 941.590594 896.266827"
          p-id="20359" fill="#b71905"></path>
    <path d="M204.97079 704.83182c6.368034 0 12.695137-2.792603 16.989953-8.207939L387.391493 488.178455l204.846458 204.889437c4.487198 4.486174 10.749832 6.941086 16.926508 6.347568 6.262634-0.50756 12.017708-3.640923 15.741519-8.632611l258.204713-344.868515c7.193843-9.56382 5.248537-23.104207-4.358261-30.29805-9.562796-7.193843-23.146163-5.246491-30.336936 4.315282L605.270778 644.744303 400.889925 440.361403c-4.40124-4.315282-10.156314-6.770194-16.587793-6.262634-6.1777 0.338714-11.932774 3.302209-15.741519 8.125051L188.024839 669.709905c-7.448646 9.309016-5.882987 23.019273 3.469008 30.464849C195.534883 703.307094 200.252325 704.83182 204.97079 704.83182"
          p-id="20360" fill="#b71905"></path>
</svg>