<?xml version="1.0" standalone="no"?><!DOCTYPE svg PUBLIC "-//W3C//DTD SVG 1.1//EN"
        "http://www.w3.org/Graphics/SVG/1.1/DTD/svg11.dtd">
<svg t="1655299856110" class="icon" viewBox="0 0 1248 1024" version="1.1" xmlns="http://www.w3.org/2000/svg"
     p-id="20244" xmlns:xlink="http://www.w3.org/1999/xlink" width="19.5" height="16">
    <path d="M31.008 98.56c8-24.128 24.096-32.96 47.296-32.48 44.832 0.96 89.728 0.224 134.624 0.32 27.488 0.064 42.24 15.552 42.24 45.216 0.064 266.816 0.064 533.632 0 800.48 0 29.728-14.656 45.408-42.016 45.472-44.896 0.128-89.76-0.64-134.624 0.32-23.104 0.512-39.296-8.224-47.552-32.192 0-275.712 0-551.424 0-827.136z"
          p-id="20245" fill="#d81e06"></path>
    <path d="M891.808 533.024c0 123.648 0.128 247.328-0.224 371.008-0.032 11.424-2.048 23.232-5.152 34.176-3.776 13.12-13.152 19.584-26.432 19.52-47.584-0.224-95.168 0.128-142.72-0.192-26.688-0.16-49.952-25.76-49.952-54.4-0.032-247.36-0.032-494.656 0-742.016 0-16.8 4.8-24.768 19.744-29.248 9.504-2.848 19.648-4.32 29.472-4.416 47.936-0.448 95.936-0.32 143.872-0.128 26.24 0.064 31.392 5.92 31.424 34.688 0 123.68 0 247.36 0 371.04z"
          p-id="20246" fill="#d81e06"></path>
    <path d="M573.632 645.664c0 89.472 0.032 178.944 0 268.416-0.032 38.88-4.352 43.52-40.256 43.52-41.408 0-82.88 0.8-124.224-0.512-12.512-0.416-25.536-5.024-37.088-10.656-16.16-7.84-23.488-21.312-23.36-42.624 0.832-175.2 0.48-350.432 0.48-525.632 0-17.76 2.56-21.696 19.072-24.768 10.496-1.952 21.312-2.88 31.968-2.944 50.208-0.288 100.448-0.16 150.72-0.128 22.112 0.032 22.688 0.768 22.688 24.32 0 90.368 0 180.672 0 270.976z"
          p-id="20247" fill="#d81e06"></path>
    <path d="M1209.824 786.944c0 46.208 0 92.384-0.032 138.592-0.032 20.832-9.344 31.808-28.768 31.936-49.472 0.384-98.944 0.288-148.416-0.064-6.752-0.032-13.728-1.952-20.192-4.288-23.68-8.544-26.752-13.44-26.752-40 0-87.424 0-174.816 0-262.24 0-17.184 0.32-17.632 15.904-17.632 65.984-0.032 131.904 0.128 197.888-0.128 8.16-0.032 10.528 2.848 10.496 11.488-0.32 47.456-0.128 94.912-0.128 142.368z"
          p-id="20248" fill="#d81e06"></path>
</svg>
