<svg t="1714820396141" class="icon" viewBox="0 0 1024 1024" version="1.1" xmlns="http://www.w3.org/2000/svg"
     p-id="23787" width="200" height="200">
    <path d="M518.373444 509.875519m-484.381743 0a484.381743 484.381743 0 1 0 968.763486 0 484.381743 484.381743 0 1 0-968.763486 0Z"
          fill="#FFDD3F" p-id="23788"></path>
    <path d="M1001.956382 514.124481c0 283.265593-242.806971 478.624398-482.873361 478.624399V514.124481h482.873361z"
          fill="#FF9195" p-id="23789"></path>
    <path d="M980.711568 514.124481c0 126.164448-51.361461 243.350838-144.621941 329.970191-87.184465 80.968232-202.722257 127.405145-316.993859 127.405145l21.244813 21.244814V514.124481l-21.244813 21.244814h482.87761l-21.26181-21.244814z m-482.869112 0v499.869212h21.244814c124.889759 0 250.96073-50.566905 345.916547-138.762622 102.017593-94.747618 158.197378-222.981311 158.197378-361.093843v-21.244813H497.842456V514.124481z"
          fill="#885F44" p-id="23790"></path>
    <path d="M1006.205344 522.622407h-5.723352c0.16571-5.234722 0.280432-10.482191 0.280431-15.759403 0-267.514689-216.862805-484.381743-484.381743-484.381743-267.514689 0-484.381743 216.867054-484.381742 484.381743 0 267.518938 216.867054 484.381743 484.381742 484.381743 2.324183 0 4.635618-0.059485 6.951303-0.089228v10.091286c24.134108 0 48.289461-2.014008 72.232366-5.850822v-10.630904c201.133145-33.078174 360.515983-190.022108 397.201527-389.914556h7.9838A478.751867 478.751867 0 0 0 1006.205344 522.622407z m-489.820415 401.378257c-230.383004 0-417.13766-186.754656-417.137659-417.13766 0-230.383004 186.758905-417.13766 417.137659-417.13766 230.378755 0 417.13766 186.758905 417.13766 417.13766 0 5.281461-0.131718 10.533178-0.32717 15.759403h-409.859187v401.28478c-2.315685 0.04249-4.62712 0.093477-6.951303 0.093477z m79.183669-7.546158V594.854772h328.631767c-34.93922 162.671535-164.711037 290.097925-328.631767 321.599734z"
          fill="#885F44" opacity=".15" p-id="23791"></path>
    <path d="M84.673328 542.652017c0-255.281925 206.945726-462.227651 462.227651-462.227652 114.738988 0 219.696863 41.822539 300.512133 111.033892C762.629311 92.482921 636.753793 29.742739 496.215104 29.742739 240.937427 29.742739 33.991701 236.688465 33.991701 491.97039c0 140.542938 62.740183 266.409959 161.719768 351.18951-69.215602-80.806772-111.038141-185.768896-111.038141-300.507883z"
          fill="#FFED9C" p-id="23792"></path>
    <path d="M518.373444 46.738589c255.379651 0 463.136929 207.761527 463.136929 463.13693 0 255.379651-207.757278 463.136929-463.136929 463.136929-255.375402 0-463.136929-207.757278-463.136929-463.136929C55.236515 254.500116 262.998041 46.738589 518.373444 46.738589zM12.746888 509.875519c0 278.804183 226.822373 505.626556 505.626556 505.626556s505.626556-226.822373 505.626556-505.626556S797.177627 4.248963 518.373444 4.248963 12.746888 231.071336 12.746888 509.875519z"
          fill="#885F44" p-id="23793"></path>
</svg>