<?xml version="1.0" standalone="no"?><!DOCTYPE svg PUBLIC "-//W3C//DTD SVG 1.1//EN"
        "http://www.w3.org/Graphics/SVG/1.1/DTD/svg11.dtd">
<svg class="icon" viewBox="0 0 1024 1024" version="1.1" xmlns="http://www.w3.org/2000/svg"
     width="16" height="16">
    <path d="M894.633088 134.027008 696.582528 134.027008 696.582528 31.363584C696.582528 14.029952 682.531648 0 665.218944 0L324.7568 0C307.423232 0 293.393216 14.029952 293.393216 31.363584L293.393216 134.027008 95.363584 134.027008C78.029952 134.027008 64 148.057024 64 165.390592L64 299.417664C64 316.751232 78.029952 330.781248 95.363584 330.781248L123.172608 330.781248 123.172608 992.636416C123.172608 1009.94912 137.202624 1024 154.536192 1024L835.46048 1024C852.77312 1024 866.824 1009.94912 866.824 992.636416L866.824 330.781248 894.633088 330.781248C911.945792 330.781248 925.996672 316.751232 925.996672 299.417664L925.996672 165.390592C925.996672 148.077888 911.945792 134.027008 894.633088 134.027008L894.633088 134.027008ZM356.120384 62.727168 633.85536 62.727168 633.85536 134.027008 356.120384 134.027008 356.120384 62.727168 356.120384 62.727168ZM126.727168 196.754176 863.269504 196.754176 863.269504 268.05408 126.727168 268.05408 126.727168 196.754176 126.727168 196.754176ZM804.096896 961.272832 185.899776 961.272832 185.899776 330.781248 293.393216 330.781248 293.393216 752.307776C293.393216 769.62048 307.423232 783.67136 324.7568 783.67136 342.090432 783.67136 356.120384 769.62048 356.120384 752.307776L356.120384 330.781248 463.634752 330.781248 463.634752 752.307776C463.634752 769.62048 477.664704 783.67136 494.998336 783.67136 512.31104 783.67136 526.36192 769.62048 526.36192 752.307776L526.36192 330.781248 633.876288 330.781248 633.876288 752.307776C633.876288 769.62048 647.927168 783.67136 665.239872 783.67136 682.552512 783.67136 696.603392 769.62048 696.603392 752.307776L696.603392 330.781248 804.11776 330.781248 804.11776 961.272832 804.096896 961.272832Z"
          fill="#6E6E6E"></path>
</svg>