<svg t="1738508740237" class="icon" viewBox="0 0 1024 1024" version="1.1" xmlns="http://www.w3.org/2000/svg"
     p-id="69017" width="256" height="256">
    <path d="M384 298.666667V128q0-35.328 25.002667-60.330667T469.333333 42.666667h85.333334q35.328 0 60.330666 25.002666T640 128v170.666667h-42.666667V256h202.922667q28.245333 0 50.944 16.853333 22.656 16.896 30.805333 43.946667l38.4 128q12.288 41.088-13.269333 75.477333-25.6 34.389333-68.48 34.389334H185.344q-42.88 0-68.48-34.389334-25.6-34.389333-13.226667-75.477333l38.4-128q8.106667-27.050667 30.762667-43.946667Q195.498667 256 223.744 256H426.666667v42.666667H384z m85.333333 0q0 4.181333-0.853333 8.32-0.768 4.138667-2.389333 8.021333-1.621333 3.84-3.968 7.381333-2.304 3.456-5.290667 6.442667-2.986667 2.986667-6.442667 5.290667-3.498667 2.346667-7.381333 3.968-3.882667 1.621333-8.021333 2.432Q430.848 341.333333 426.666667 341.333333H223.744l-38.4 128h653.312l-38.4-128H597.333333q-4.224 0-8.32-0.853333-4.138667-0.768-8.021333-2.389333-3.84-1.621333-7.381333-3.968-3.498667-2.304-6.442667-5.290667-2.986667-2.986667-5.333333-6.442667-2.304-3.498667-3.925334-7.381333-1.621333-3.882667-2.432-8.021333Q554.666667 302.848 554.666667 298.666667V128h-85.333334v170.666667z"
          fill="#6E6E6E" p-id="69018"></path>
    <path d="M862.08 868.565333q12.586667-114.602667 12.586667-190.634666 0-103.424-23.253334-178.56-0.981333-3.242667-2.474666-6.272-1.536-3.029333-3.498667-5.802667-1.962667-2.773333-4.352-5.205333-2.389333-2.432-5.12-4.437334-2.730667-2.005333-5.717333-3.584-3.029333-1.536-6.272-2.602666-3.2-1.066667-6.570667-1.578667Q814.08 469.333333 810.666667 469.333333H192q-4.181333 0-8.32 0.853334-4.138667 0.768-8.021333 2.389333-3.84 1.621333-7.381334 3.968-3.456 2.304-6.442666 5.290667-2.986667 2.986667-5.290667 6.442666-2.346667 3.498667-3.968 7.381334-1.621333 3.882667-2.432 8.021333-0.810667 4.138667-0.810667 8.32v1.664q2.645333 67.541333 0 163.072-1.706667 63.36-71.509333 169.258667-28.544 43.306667-4.138667 89.173333Q98.261333 981.333333 150.4 981.333333h585.344q48.384 0 84.608-32.170666 36.437333-32.384 41.728-80.64zM777.813333 554.666667q11.562667 53.333333 11.562667 123.264 0 71.338667-12.074667 181.333333-1.706667 15.573333-13.568 26.112-11.946667 10.624-27.946666 10.624H150.357333q-0.853333 0-1.322666-0.896-0.597333-1.152 0.042666-2.133333 83.2-126.208 85.589334-213.888 1.877333-69.12 1.109333-124.416h541.994667z"
          fill="#6E6E6E" p-id="69019"></path>
    <path d="M333.056 963.882667Q426.666667 836.309333 426.666667 682.666667H341.333333q0 125.653333-77.056 230.784l68.778667 50.432zM594.730667 953.344Q640 829.866667 640 682.666667h-85.333333q0 132.053333-40.064 241.322666l80.128 29.354667z"
          fill="#6E6E6E" p-id="69020"></path>
</svg>