<svg t="1739720749432" class="icon" viewBox="0 0 1024 1024" version="1.1" xmlns="http://www.w3.org/2000/svg" p-id="3776"
     width="256" height="256">
    <path d="M933.647059 677.647059v331.294117a15.058824 15.058824 0 0 1-15.058824 15.058824H105.411765a15.058824 15.058824 0 0 1-15.058824-15.058824v-331.294117a15.058824 15.058824 0 0 1 15.058824-15.058824h813.17647a15.058824 15.058824 0 0 1 15.058824 15.058824z m-843.294118-150.588235v-90.352942a15.058824 15.058824 0 0 1 15.058824-15.058823H421.647059V15.058824a15.058824 15.058824 0 0 1 15.058823-15.058824h150.588236a15.058824 15.058824 0 0 1 15.058823 15.058824V421.647059h316.235294a15.058824 15.058824 0 0 1 15.058824 15.058823v90.352942a15.058824 15.058824 0 0 1-15.058824 15.058823H105.411765a15.058824 15.058824 0 0 1-15.058824-15.058823z"
          fill="#D10011" p-id="3777"></path>
</svg>
