<?xml version="1.0" standalone="no"?><!DOCTYPE svg PUBLIC "-//W3C//DTD SVG 1.1//EN"
        "http://www.w3.org/Graphics/SVG/1.1/DTD/svg11.dtd">
<svg t="1655308982115" class="icon" viewBox="0 0 1024 1024" version="1.1" xmlns="http://www.w3.org/2000/svg"
     p-id="38072" xmlns:xlink="http://www.w3.org/1999/xlink" width="12" height="12">
    <defs>
        <style type="text/css">@font-face { font-family: feedback-iconfont; src:
            url("//at.alicdn.com/t/font_1031158_u69w8yhxdu.woff2?t=1630033759944") format("woff2"),
            url("//at.alicdn.com/t/font_1031158_u69w8yhxdu.woff?t=1630033759944") format("woff"),
            url("//at.alicdn.com/t/font_1031158_u69w8yhxdu.ttf?t=1630033759944") format("truetype"); }
        </style>
    </defs>
    <path d="M0 614.4v273.066667l236.202667 136.533333 236.202666-136.533333V614.4L236.202667 477.866667z m404.821333 233.472l-168.618666 97.621333L68.266667 847.872V653.994667l167.936-97.621334 168.618666 97.621334zM750.933333 136.533333L512 0 273.066667 136.533333v273.066667l238.933333 136.533333L750.933333 409.6z m-68.266666 233.472L512 467.626667 341.333333 370.005333V176.128l170.666667-97.621333L682.666667 176.128z"
          fill="#707070" p-id="38073"></path>
    <path d="M409.6 213.674667v118.784l102.4 58.709333L614.4 332.458667V213.674667l-102.4-58.709334-102.4 58.709334zM136.533333 810.325333l102.4 58.709334 102.4-58.709334v-118.784l-102.4-58.709333-102.4 58.709333v118.784zM682.666667 691.541333v118.784l102.4 58.709334 102.4-58.709334v-118.784l-102.4-58.709333-102.4 58.709333z"
          fill="#707070" p-id="38074"></path>
    <path d="M787.797333 477.866667L550.912 614.4v273.066667l236.202667 136.533333L1024 887.466667V614.4zM955.733333 847.872l-167.936 96.938667-168.618666-96.938667V653.994667l167.936-96.938667L955.733333 653.994667z"
          fill="#707070" p-id="38075"></path>
</svg>
