<svg t="1714819642067" class="icon" viewBox="0 0 1024 1024" version="1.1" xmlns="http://www.w3.org/2000/svg" p-id="1710" width="200" height="200"><path d="M341.489558 644.711558c-8.361435 0-15.959483-5.671163-18.049075-14.159488-3.035126-12.323677-73.360821-303.349913 18.685572-439.201997 26.083052-38.497802 62.582337-61.245899 108.496039-67.626214 10.143011-1.444908 19.575848 5.689582 20.99415 15.877619s-5.689582 19.585057-15.868409 21.00336c-35.516912 4.926196-62.600757 21.820981-82.794681 51.621704-82.867336 122.301464-14.086833 406.557506-13.377682 409.419694 2.472308 9.979282-3.635807 20.067035-13.614066 22.520923a18.523889 18.523889 0 0 1-4.471848 0.544399zM509.005806 644.711558c-8.361435 0-15.959483-5.671163-18.049075-14.159488-3.035126-12.323677-73.360821-303.349913 18.685572-439.201997 26.083052-38.497802 62.582337-61.245899 108.496039-67.626214 10.124592-1.444908 19.575848 5.689582 20.99415 15.877619s-5.689582 19.585057-15.868409 21.00336c-35.516912 4.926196-62.600757 21.820981-82.794681 51.621704-82.867336 122.301464-14.086833 406.557506-13.377682 409.419694 2.472308 9.979282-3.635807 20.067035-13.614066 22.520923a18.530029 18.530029 0 0 1-4.471848 0.544399zM676.521031 644.711558c-8.361435 0-15.959483-5.671163-18.049075-14.159488-3.035126-12.323677-73.360821-303.349913 18.685571-439.201997 26.083052-38.497802 62.582337-61.245899 108.49604-67.626214 10.124592-1.444908 19.575848 5.689582 20.99415 15.877619s-5.689582 19.585057-15.868409 21.00336c-35.516912 4.926196-62.600757 21.820981-82.794682 51.621704-82.867336 122.301464-14.086833 406.557506-13.377682 409.419694 2.472308 9.979282-3.635807 20.067035-13.614065 22.520923a18.523889 18.523889 0 0 1-4.471848 0.544399z" fill="#885F44" p-id="1711"></path><path d="M682.712033 874.340445h-322.556347c-151.86785 0-276.122805-124.254955-276.122804-276.122805V350.245989c0-30.894637 22.00006-56.899918 51.108004-63.122643 9.453303-2.02103 18.057261-6.881734 24.303523-14.260795l36.894281-43.585681c23.692608-27.990494 69.288063-15.565511 75.505672 20.575618 3.564175 20.716834 21.529339 35.855626 42.551118 35.855626h371.874589c139.67618 0 253.956969 114.28079 253.956969 253.956969v77.161381c-0.001023 141.632741-115.882264 257.513982-257.515005 257.513981z" fill="#F7D11E" p-id="1712"></path><path d="M682.719196 892.949268H360.15671c-162.517397 0-294.734698-132.217301-294.734698-294.734697V350.249059c0-38.97057 27.683503-73.170486 65.835427-81.331353 5.706979-1.217734 10.5421-4.00829 13.995759-8.088212l36.86256-43.578518c11.978822-14.131859 28.628014-21.912056 46.913472-21.912056 30.318516 0 56.038294 21.603017 61.146639 51.357692a24.5133 24.5133 0 0 0 24.211424 20.394492H686.263929c150.303214 0 272.577049 122.273834 272.577049 272.577049v77.160357c0 152.256706-123.873262 276.120758-276.121782 276.120758zM229.030253 232.564753c-5.053086 0-12.377912 1.517563-18.503422 8.733919l-36.862559 43.587727c-8.834202 10.42442-20.812001 17.486256-34.626636 20.439518-21.085224 4.507664-36.389792 23.401989-36.389791 44.923142v247.965512c0 141.986805 115.51285 257.508865 257.508865 257.508865h322.562486c131.726114 0 238.895949-107.169835 238.895949-238.895949v-77.160357c0-129.772622-105.570407-235.351216-235.351216-235.351216H314.388317a61.637826 61.637826 0 0 1-60.891836-51.312666c-2.418073-14.040784-14.378475-20.438495-24.466228-20.438495z" fill="#885F44" p-id="1713"></path><path d="M420.266739 451.909413H141.074016c-10.288321 0-18.612916-8.652054-18.612917-18.931164s8.324596-18.931165 18.612917-18.931165h279.193746c10.288321 0 18.612916 8.652054 18.612917 18.931165s-8.325619 18.931165-18.61394 18.931164zM848.363817 451.909413H606.395904c-10.288321 0-18.612916-8.652054-18.612917-18.931164s8.324596-18.931165 18.612917-18.931165h241.967913c10.288321 0 18.612916 8.652054 18.612917 18.931165s-8.325619 18.931165-18.612917 18.931164zM526.709003 805.556872c-160.208818 0-239.022839-160.927179-242.294348-167.770027-4.435009-9.270131-0.508583-20.357654 8.743128-24.801873 9.305947-4.425799 20.394493-0.517793 24.829502 8.715499 0.709151 1.463328 72.215742 146.631592 208.722742 146.631592 134.889153 0 178.730661-142.431943 179.149192-143.876852 2.926656-9.833973 13.250792-15.505136 23.139-12.54164 9.869788 2.926656 15.486716 13.278421 12.56006 23.138999-0.509606 1.697665-52.494585 170.504302-214.849276 170.504302z" fill="#885F44" p-id="1714"></path><path d="M127.458927 570.262962a65.144696 18.612916 0 1 0 130.289392 0 65.144696 18.612916 0 1 0-130.289392 0Z" fill="#FF713C" p-id="1715"></path><path d="M760.297063 570.262962a65.144696 18.612916 0 1 0 130.289391 0 65.144696 18.612916 0 1 0-130.289391 0Z" fill="#FF713C" p-id="1716"></path></svg>