<?xml version="1.0" standalone="no"?><!DOCTYPE svg PUBLIC "-//W3C//DTD SVG 1.1//EN"
        "http://www.w3.org/Graphics/SVG/1.1/DTD/svg11.dtd">
<svg t="1654245611300" class="icon" viewBox="0 0 1024 1024" version="1.1" xmlns="http://www.w3.org/2000/svg"
     p-id="18325" width="16" height="16">
    <path d="M896 761.429333v128c0 70.656-166.229333 128-371.2 128s-371.2-57.344-371.2-128v-110.933333C223.488 818.176 357.802667 844.8 512 844.8c175.957333 0 326.058667-34.645333 384-83.370667z"
          fill="#FED766" p-id="18326"></path>
    <path d="M192.426667 771.242667C267.52 800.512 382.805333 819.2 512 819.2c226.218667 0 409.6-57.344 409.6-128 0-19.456-13.909333-37.973333-38.826667-54.442667C807.68 607.488 692.394667 588.8 563.2 588.8c-226.218667 0-409.6 57.344-409.6 128 0 19.456 13.909333 37.973333 38.826667 54.442667z"
          fill="#FED766" p-id="18327"></path>
    <path d="M512 815.957333c-175.872 0-319.829333-30.890667-384-84.053333v160.853333c0 48.554667 172.373333 102.4 384 102.4s384-53.845333 384-102.4V733.866667c-66.133333 51.968-210.005333 82.090667-384 82.090666zM909.568 665.6a45.482667 45.482667 0 0 1 12.032 21.76v205.397333c0 70.656-183.381333 128-409.6 128s-409.6-57.344-409.6-128V691.2q0-7.936 15.104-25.6c0 70.656 168.277333 124.757333 394.496 124.757333s397.568-54.101333 397.568-124.757333z"
          fill="#AD8653" p-id="18328"></path>
    <path d="M512 563.2v25.6c107.690667 0 208.298667 13.312 281.6 36.352 66.474667 20.736 102.4 47.018667 102.4 66.048s-35.498667 45.312-102.4 66.048C720.298667 780.288 619.690667 793.6 512 793.6s-208.298667-13.312-281.6-36.352c-66.901333-20.736-102.4-47.018667-102.4-66.048 0-8.533333 7.765333-19.712 25.6-31.914667l-14.506667-21.077333c-23.552 16.128-36.693333 34.133333-36.693333 52.992 0 70.656 183.381333 128 409.6 128s409.6-57.344 409.6-128-183.381333-128-409.6-128z m0 0v25.6c107.690667 0 208.298667 13.312 281.6 36.352 66.474667 20.736 102.4 47.018667 102.4 66.048s-35.498667 45.312-102.4 66.048C720.298667 780.288 619.690667 793.6 512 793.6s-208.298667-13.312-281.6-36.352c-66.901333-20.736-102.4-47.018667-102.4-66.048 0-8.533333 7.765333-19.712 25.6-31.914667l-14.506667-21.077333c-23.552 16.128-36.693333 34.133333-36.693333 52.992 0 70.656 183.381333 128 409.6 128s409.6-57.344 409.6-128-183.381333-128-409.6-128z"
          fill="#AD8653" p-id="18329"></path>
    <path d="M896 479.829333v128c0 70.656-166.229333 128-371.2 128S153.6 678.826667 153.6 608.170667v-110.933334C223.488 536.576 357.802667 563.2 512 563.2c175.957333 0 326.058667-34.645333 384-83.370667z"
          fill="#FED766" p-id="18330"></path>
    <path d="M192.426667 489.642667C267.52 518.912 382.805333 537.6 512 537.6c226.218667 0 409.6-57.344 409.6-128 0-19.456-13.909333-37.973333-38.826667-54.442667C807.68 325.888 692.394667 307.2 563.2 307.2c-226.218667 0-409.6 57.344-409.6 128 0 19.456 13.909333 37.973333 38.826667 54.442667z"
          fill="#FED766" p-id="18331"></path>
    <path d="M512 534.357333c-175.872 0-319.829333-30.890667-384-84.053333v160.853333c0 48.554667 172.373333 102.4 384 102.4s384-53.845333 384-102.4V452.266667c-66.133333 51.968-210.005333 82.090667-384 82.090666zM909.568 384a45.482667 45.482667 0 0 1 12.032 21.76v205.397333c0 70.656-183.381333 128-409.6 128s-409.6-57.344-409.6-128V409.6q0-7.936 15.104-25.6c0 70.656 168.277333 124.757333 394.496 124.757333s397.568-54.101333 397.568-124.757333z"
          fill="#AD8653" p-id="18332"></path>
    <path d="M512 281.6c226.218667 0 409.6 57.344 409.6 128S738.218667 537.6 512 537.6s-409.6-57.344-409.6-128c0-18.944 13.141333-36.864 36.693333-52.992l14.506667 21.077333C135.765333 389.888 128 401.066667 128 409.6c0 48.554667 172.373333 102.4 384 102.4s384-53.845333 384-102.4-172.373333-102.4-384-102.4z m0 0c226.218667 0 409.6 57.344 409.6 128S738.218667 537.6 512 537.6s-409.6-57.344-409.6-128c0-18.944 13.141333-36.864 36.693333-52.992l14.506667 21.077333C135.765333 389.888 128 401.066667 128 409.6c0 48.554667 172.373333 102.4 384 102.4s384-53.845333 384-102.4-172.373333-102.4-384-102.4z"
          fill="#AD8653" p-id="18333"></path>
    <path d="M896 198.229333v128c0 70.656-166.229333 128-371.2 128S153.6 397.226667 153.6 326.570667v-110.933334C223.488 254.976 357.802667 281.6 512 281.6c175.957333 0 326.058667-34.645333 384-83.370667z"
          fill="#FED766" p-id="18334"></path>
    <path d="M192.426667 208.042667C267.52 237.312 382.805333 256 512 256c226.218667 0 409.6-57.344 409.6-128 0-19.456-13.909333-37.973333-38.826667-54.442667C807.68 44.288 692.394667 25.6 563.2 25.6 336.981333 25.6 153.6 82.944 153.6 153.6c0 19.456 13.909333 37.973333 38.826667 54.442667z"
          fill="#FED766" p-id="18335"></path>
    <path d="M512 252.757333c-175.872 0-319.829333-30.890667-384-84.053333v160.853333c0 48.554667 172.373333 102.4 384 102.4s384-53.845333 384-102.4V170.666667c-66.133333 51.968-210.005333 82.090667-384 82.090666zM909.568 102.4a45.482667 45.482667 0 0 1 12.032 21.76v205.397333c0 70.656-183.381333 128-409.6 128s-409.6-57.344-409.6-128V128q0-7.936 15.104-25.6c0 70.656 168.277333 124.757333 394.496 124.757333s397.568-54.101333 397.568-124.757333z"
          fill="#AD8653" p-id="18336"></path>
    <path d="M512 230.4c211.626667 0 384-53.845333 384-102.4S723.626667 25.6 512 25.6 128 79.445333 128 128s172.373333 102.4 384 102.4z m0 25.6c-226.218667 0-409.6-57.344-409.6-128S285.781333 0 512 0s409.6 57.344 409.6 128-183.381333 128-409.6 128z"
          fill="#AD8653" p-id="18337"></path>
</svg>
