<?xml version="1.0" standalone="no"?><!DOCTYPE svg PUBLIC "-//W3C//DTD SVG 1.1//EN"
        "http://www.w3.org/Graphics/SVG/1.1/DTD/svg11.dtd">
<svg t="1654246860464" class="icon" viewBox="0 0 1024 1024" version="1.1" xmlns="http://www.w3.org/2000/svg"
     p-id="20906" xmlns:xlink="http://www.w3.org/1999/xlink" width="16" height="16">
    <path d="M560.584 460.67q-14.405 0-24.902 12.512-10.5 12.514-10.498 36.193 0 23.318 6.347 33.692 10.374 16.968 28.076 16.968 14.403 0 24.903-12.512 10.497-12.512 10.498-37.292 0-25.39-10.07-37.476-10.073-12.085-24.354-12.085z"
          fill="#d81e06" p-id="20907"></path>
    <path d="M512 384c-212.128 0-384-57.312-384-128v256c0 70.688 171.872 128 384 128s384-57.312 384-128V256c0 70.688-171.872 128-384 128z m-40.1 163.889a53.135 53.135 0 0 1-21.85 22.277 63.631 63.631 0 0 1-31.312 7.936q-27.222 0-44.006-17.457-16.786-17.455-16.785-50.293 0-36.008 20.02-53.344 16.722-14.403 40.771-14.405 26.734 0 43.701 17.517 16.966 17.518 16.968 48.402 0 25.025-7.507 39.367z m89.538 30.213q-22.95 0-36.01-19.166v16.236h-20.386V396.217h21.973v63.842q13.916-17.455 35.522-17.456a54.427 54.427 0 0 1 22.645 4.822 46.293 46.293 0 0 1 17.578 13.55 65.583 65.583 0 0 1 10.803 21.057 86.845 86.845 0 0 1 3.906 26.367q0 33.325-16.48 51.513-16.48 18.19-39.55 18.19z m104.615 4.15q0 23.924-6.226 33.324-7.936 12.205-26.367 12.207a63.723 63.723 0 0 1-17.212-2.318l4.15-18.678a44.198 44.198 0 0 0 10.376 1.71q6.712 0 10.01-4.456 3.296-4.457 3.296-22.277V445.533h21.973z m0-160.523H644.08v-25.512h21.973z"
          fill="#d81e06" p-id="20908"></path>
    <path d="M418.738 460.792a34.9 34.9 0 0 0-27.343 12.329q-10.867 12.33-10.865 37.23 0 24.903 10.865 37.294a36.174 36.174 0 0 0 54.565-0.06q10.863-12.452 10.864-37.966 0-24.046-10.925-36.437-10.926-12.388-27.16-12.39zM896 192c0 70.688-171.872 128-384 128s-384-57.312-384-128S299.872 64 512 64s384 57.312 384 128zM512 704c-212.128 0-384-57.312-384-128v256c0 70.688 171.872 128 384 128s384-57.312 384-128V576c0 70.688-171.872 128-384 128z"
          fill="#d81e06" p-id="20909"></path>
</svg>
