<?xml version="1.0" standalone="no"?><!DOCTYPE svg PUBLIC "-//W3C//DTD SVG 1.1//EN"
        "http://www.w3.org/Graphics/SVG/1.1/DTD/svg11.dtd">
<svg t="1654013348995" class="icon" viewBox="0 0 1218 1024" version="1.1" xmlns="http://www.w3.org/2000/svg"
     p-id="127208" width="16" height="16" xmlns:xlink="http://www.w3.org/1999/xlink">
    <defs>
        <style type="text/css">@font-face { font-family: feedback-iconfont; src:
            url("//at.alicdn.com/t/font_1031158_u69w8yhxdu.woff2?t=1630033759944") format("woff2"),
            url("//at.alicdn.com/t/font_1031158_u69w8yhxdu.woff?t=1630033759944") format("woff"),
            url("//at.alicdn.com/t/font_1031158_u69w8yhxdu.ttf?t=1630033759944") format("truetype"); }
        </style>
    </defs>
    <path d="M1169.592417 975.469194V145.592417c0-53.383886-43.677725-97.061611-97.061611-97.061611H145.592417c-53.383886 0-97.061611 43.677725-97.061611 97.061611v829.876777h1121.061611z"
          fill="#FFFFFF" p-id="127209"></path>
    <path d="M1193.85782 975.469194V145.592417c0-66.899716-54.427299-121.327014-121.327014-121.327014H145.592417C78.692701 24.265403 24.265403 78.692701 24.265403 145.592417v854.14218h1169.592417v-24.265403z m-1121.061611 0V145.592417c0-40.139829 32.656379-72.796209 72.796208-72.796208h926.938389c40.139829 0 72.796209 32.656379 72.796208 72.796208v829.876777l24.265403-24.265403H48.530806l24.265403 24.265403z"
          fill="#AD8653" p-id="127210"></path>
    <path d="M48.530806 237.800948h1145.327014v48.530806H48.530806zM201.228133 470.923526l114.047393 114.04254v-34.311279l-114.047393 114.047393 34.320985 34.31128 114.047394-114.047394L366.752152 567.810427l-17.15564-17.15564-114.047394-114.052247zM470.748815 643.033175h247.507109v48.530806H470.748815z"
          fill="#6E6E96" p-id="127211"></path>
    <path d="M1072.530806 48.530806H145.592417c-53.383886 0-97.061611 43.677725-97.061611 97.061611v116.473934h1121.061611V145.592417c0-53.383886-43.677725-97.061611-97.061611-97.061611z"
          fill="#F7D11E" p-id="127212"></path>
    <path d="M1072.530806 24.265403H145.592417C78.692701 24.265403 24.265403 78.692701 24.265403 145.592417v140.739337h1169.592417V145.592417c0-66.899716-54.427299-121.327014-121.327014-121.327014z m72.796208 121.327014v116.473934l24.265403-24.265403H48.530806l24.265403 24.265403V145.592417c0-40.139829 32.656379-72.796209 72.796208-72.796208h926.938389c40.139829 0 72.796209 32.656379 72.796208 72.796208z"
          fill="#885F44" p-id="127213"></path>
    <path d="M296.037915 48.530806h48.530805v213.535545H296.037915z" fill="#885F44" p-id="127214"></path>
    <path d="M72.796209 286.331754h1072.530805v58.236966H72.796209z" fill="#885F44" opacity=".15" p-id="127215"></path>
    <path d="M72.796209 184.417062h1072.530805v53.383886H72.796209z" fill="#885F44" opacity=".15" p-id="127216"></path>
</svg>