<?xml version="1.0" standalone="no"?><!DOCTYPE svg PUBLIC "-//W3C//DTD SVG 1.1//EN"
        "http://www.w3.org/Graphics/SVG/1.1/DTD/svg11.dtd">
<svg t="1654246119403" class="icon" viewBox="0 0 1024 1024" version="1.1" xmlns="http://www.w3.org/2000/svg"
     p-id="18627" width="16" height="16">
    <defs>
        <style type="text/css">@font-face { font-family: feedback-iconfont; src:
            url("//at.alicdn.com/t/font_1031158_u69w8yhxdu.woff2?t=1630033759944") format("woff2"),
            url("//at.alicdn.com/t/font_1031158_u69w8yhxdu.woff?t=1630033759944") format("woff"),
            url("//at.alicdn.com/t/font_1031158_u69w8yhxdu.ttf?t=1630033759944") format("truetype"); }
        </style>
    </defs>
    <path d="M170.496 164.352c0 67.072 152.576 121.856 341.504 121.856s341.504-54.272 341.504-121.856c0-67.072-152.576-121.856-341.504-121.856S170.496 97.28 170.496 164.352zM347.648 710.656c-68.096-14.848-130.048-36.352-177.152-66.048v219.648c0 55.296 106.496 102.4 249.856 117.248-51.2-51.2-83.456-121.344-83.456-198.656 2.048-25.6 6.656-49.152 10.752-72.192zM170.496 307.2v206.848c0 51.2 89.6 96.256 215.552 113.152 51.2-74.752 134.144-123.904 232.448-123.904 72.704 0 136.704 27.648 187.904 72.704 29.696-16.896 47.104-36.352 47.104-59.904V307.2c-80.896 51.2-210.944 83.456-341.504 83.456S251.904 358.4 170.496 307.2z m375.808 303.104l-130.048 117.248h437.248v-59.904h-307.2v-57.344z m-130.56 194.048v57.344h305.152V921.6l132.096-117.248H415.744z"
          fill="#d81e06" p-id="18628"></path>
</svg>