<?xml version="1.0" standalone="no"?><!DOCTYPE svg PUBLIC "-//W3C//DTD SVG 1.1//EN"
        "http://www.w3.org/Graphics/SVG/1.1/DTD/svg11.dtd">
<svg t="1654005981052" class="icon" viewBox="0 0 1024 1024" version="1.1" xmlns="http://www.w3.org/2000/svg"
     p-id="38319" width="16" height="16" xmlns:xlink="http://www.w3.org/1999/xlink">
    <defs>
        <style type="text/css">@font-face { font-family: feedback-iconfont; src:
            url("//at.alicdn.com/t/font_1031158_u69w8yhxdu.woff2?t=1630033759944") format("woff2"),
            url("//at.alicdn.com/t/font_1031158_u69w8yhxdu.woff?t=1630033759944") format("woff"),
            url("//at.alicdn.com/t/font_1031158_u69w8yhxdu.ttf?t=1630033759944") format("truetype"); }
        </style>
    </defs>
    <path d="M576.170667 770.675101v85.563535h64.170666a42.785736 42.785736 0 1 1 0 85.563535h-64.170666v21.392868a42.785736 42.785736 0 0 1-42.785737 42.777798h-42.777798a42.785736 42.785736 0 0 1-42.785737-42.785736V471.19876h128.35721v213.912806h64.170666a42.785736 42.785736 0 1 1 0 85.563535h-64.178604z"
          fill="#D6A154" p-id="38320"></path>
    <path d="M854.25414 119.784186v317.805147c0 54.002109-43.785922 97.788031-97.788031 97.788031H576.170667c0 70.878264-57.46307 128.341333-128.349272 128.341334V535.377364H267.533891c-54.002109 0-97.780093-43.785922-97.780093-97.795969V119.784186c0-54.010047 43.777984-97.788031 97.788031-97.788031h488.92428c54.010047 0 97.795969 43.777984 97.795969 97.788031z"
          fill="#FED766" p-id="38321"></path>
    <path d="M463.872 363.178667v2.143255a16.042667 16.042667 0 0 1-32.085333 0v-2.143255a16.042667 16.042667 0 0 1 32.085333 0zM512 347.136a16.042667 16.042667 0 0 0-16.042667 16.042667v2.143255a16.042667 16.042667 0 0 0 32.085334 0v-2.143255A16.042667 16.042667 0 0 0 512 347.136z m64.170667 0a16.042667 16.042667 0 0 0-16.034729 16.042667v2.143255a16.042667 16.042667 0 0 0 32.077395 0v-2.143255a16.042667 16.042667 0 0 0-16.034728-16.042667zM383.650729 209.165891h256.690604a16.042667 16.042667 0 0 0 0-32.085333H383.650729a16.042667 16.042667 0 0 0 0 32.085333z m256.698542 53.478202H383.650729a16.042667 16.042667 0 0 0 0 32.085333h256.682666a16.042667 16.042667 0 0 0 0-32.085333z"
          fill="#AD8653" p-id="38322"></path>
    <path d="M756.466109 5.953488H267.533891C204.768248 5.953488 153.703194 57.018543 153.703194 119.784186v317.805147c0 62.765643 51.065054 113.830698 113.830697 113.830698h164.252776v411.775008c0 32.434605 26.38586 58.820465 58.820465 58.820465h42.785736c32.434605 0 58.820465-26.38586 58.820465-58.820465v-5.350202h48.135938c32.426667 0 58.820465-26.393798 58.820465-58.820465 0-32.442543-26.393798-58.828403-58.820465-58.828403h-48.135938v-53.478202h48.135938c32.426667 0 58.820465-26.38586 58.820465-58.820465 0-32.442543-26.393798-58.828403-58.820465-58.828403h-48.135938V551.420031h164.252776c62.765643 0 113.830698-51.065054 113.830697-113.830698V119.784186c0-62.765643-51.065054-113.830698-113.830697-113.830698zM640.349271 701.154233a26.766884 26.766884 0 0 1 26.735132 26.743069 26.766884 26.766884 0 0 1-26.74307 26.735132h-64.170666a16.034729 16.034729 0 0 0-16.034729 16.042667v85.563535a16.034729 16.034729 0 0 0 16.034729 16.042666h64.170666a26.766884 26.766884 0 0 1 26.74307 26.735132 26.766884 26.766884 0 0 1-26.74307 26.74307h-64.170666a16.034729 16.034729 0 0 0-16.034729 16.042667v21.392868a26.766884 26.766884 0 0 1-26.751008 26.735132h-42.777798a26.766884 26.766884 0 0 1-26.735132-26.735132V678.880248c38.75324-4.302388 72.934202-24.012403 96.256-52.843163v59.074481a16.034729 16.034729 0 0 0 16.042667 16.042667h64.170666z m197.862202-263.5649c0 45.071876-36.673488 81.745364-81.745364 81.745365H576.170667a16.034729 16.034729 0 0 0-16.034729 16.034728c0 56.47876-41.912558 103.352558-96.263938 111.163535V535.377364a16.034729 16.034729 0 0 0-16.042667-16.042666H267.533891c-45.071876 0-81.737426-36.673488-81.737426-81.745365V119.784186c0-45.071876 36.66555-81.745364 81.737426-81.745364h488.940156c45.063938 0 81.737426 36.673488 81.737426 81.745364v317.805147z"
          fill="#4C4C4C" p-id="38323"></path>
</svg>