<?xml version="1.0" standalone="no"?><!DOCTYPE svg PUBLIC "-//W3C//DTD SVG 1.1//EN"
        "http://www.w3.org/Graphics/SVG/1.1/DTD/svg11.dtd">
<svg t="1655895647603" class="icon" viewBox="0 0 1024 1024" version="1.1" xmlns="http://www.w3.org/2000/svg" p-id="4323"
     width="18" height="18">
    <path d="M448 304.00512c0-26.39872 21.6064-48.00512 48.00512-48.00512l32.01024 0c26.39872 0 48.00512 21.6064 48.00512 48.00512l0 32.01024c0 26.39872-21.6064 48.00512-48.00512 48.00512l-32.01024 0c-26.39872 0-48.00512-21.6064-48.00512-48.00512l0-32.01024z"
          p-id="4324" fill="#707070"></path>
    <path d="M640 768l-256 0 0-64 64 0 0-192-64 0 0-64 192 0 0 256 64 0z" p-id="4325" fill="#707070"></path>
    <path d="M512 0c-282.76736 0-512 229.23264-512 512s229.23264 512 512 512 512-229.23264 512-512-229.23264-512-512-512zM512 928.01024c-229.74464 0-416.01024-186.24512-416.01024-416.01024s186.24512-416.01024 416.01024-416.01024 416.01024 186.24512 416.01024 416.01024-186.24512 416.01024-416.01024 416.01024z"
          p-id="4326" fill="#707070"></path>
</svg>
