<?xml version="1.0" standalone="no"?><!DOCTYPE svg PUBLIC "-//W3C//DTD SVG 1.1//EN"
        "http://www.w3.org/Graphics/SVG/1.1/DTD/svg11.dtd">
<svg class="icon" viewBox="0 0 1024 1024" version="1.1" xmlns="http://www.w3.org/2000/svg"
     width="16" height="18">
    <path d="M853.333333 469.333333h-388.266666C445.013333 372.053333 358.826667 298.666667 256 298.666667c-117.76 0-213.333333 95.573333-213.333333 213.333333s95.573333 213.333333 213.333333 213.333333c102.826667 0 189.013333-73.386667 209.066667-170.666666H682.666667v85.333333c0 23.466667 19.2 42.666667 42.666666 42.666667s42.666667-19.2 42.666667-42.666667v-85.333333h85.333333c23.466667 0 42.666667 19.2 42.666667 42.666666v42.666667c0 23.466667 19.2 42.666667 42.666667 42.666667s42.666667-19.2 42.666666-42.666667v-42.666667c0-70.4-57.6-128-128-128zM256 640c-70.4 0-128-57.6-128-128s57.6-128 128-128 128 57.6 128 128-57.6 128-128 128z"
          fill="#d81e06"></path>
</svg>
