<?xml version="1.0" standalone="no"?><!DOCTYPE svg PUBLIC "-//W3C//DTD SVG 1.1//EN"
        "http://www.w3.org/Graphics/SVG/1.1/DTD/svg11.dtd">
<svg t="1654244822032" class="icon" viewBox="0 0 1024 1024" version="1.1" xmlns="http://www.w3.org/2000/svg"
     p-id="12338" width="20" height="20" xmlns:xlink="http://www.w3.org/1999/xlink">
    <defs>
        <style type="text/css">@font-face { font-family: feedback-iconfont; src:
            url("//at.alicdn.com/t/font_1031158_u69w8yhxdu.woff2?t=1630033759944") format("woff2"),
            url("//at.alicdn.com/t/font_1031158_u69w8yhxdu.woff?t=1630033759944") format("woff"),
            url("//at.alicdn.com/t/font_1031158_u69w8yhxdu.ttf?t=1630033759944") format("truetype"); }
        </style>
    </defs>
    <path d="M510.464 214.016l-101.000 34.816L342.528 209.92l168.96-60.416 169.984 61.952-64.512 36.864-106.496-34.304z m1.024 201.216l101.888-34.816 65.536 38.912-168.96 60.416-169.984-61.952L404.48 380.416l107.008 34.816zM356.352 363.52l-69.12 33.28-221.696-82.432 225.28-83.456 65.536 38.912-122.368 44.544L356.352 363.52z m434.688-49.152l-122.368-44.544 65.536-38.912 225.792 83.456-221.696 82.432-69.12-33.28 121.856-49.152z m-279.552 294.4L65.024 433.664l-1.024-88.576 447.488 175.104 447.488-173.056v89.6l-447.488 172.032z m1.024 33.792l447.488-173.056v89.6l-447.488 172.544-446.464-175.104-1.024-88.576 447.488 174.592z m-447.488-51.712l447.488 175.104 447.488-173.056v89.6L512.512 855.04l-446.464-175.104-1.024-89.088z"
          fill="#b71905" p-id="12339" data-spm-anchor-id="a313x.7781069.0.i1" class="selected"></path>
</svg>