<svg t="1714821493857" class="icon" viewBox="0 0 1163 1024" version="1.1" xmlns="http://www.w3.org/2000/svg"
     p-id="43016" width="200" height="200">
    <path d="M335.470056 309.051999l-39.782803 39.782803c-150.473129 150.473129-144.567316 379.336367 0.231323 524.130285 144.798639 144.798639 373.661877 150.709173 524.130285 0.240764l39.787524-39.787523"
          fill="#EBEBFF" p-id="43017"></path>
    <path d="M558.200878 1011.754054c-101.564877 0.004721-203.139197-39.584526-282.31297-118.753579-158.248408-158.248408-158.347547-406.075396-0.231322-564.19162l39.782803-39.782803 40.056613 40.056614-39.782803 39.782803c-66.715388 66.715388-103.056674 153.348141-102.315496 243.932266 0.731735 89.455836 37.148555 174.743141 102.546819 240.141405 65.402985 65.398264 150.685569 101.815084 240.141405 102.54682 0.901687 0.009442 1.812816 0.014163 2.714502 0.014162 89.602183 0 175.163299-36.270473 241.217765-102.320217l39.787523-39.787524 40.051893 40.051893-39.787524 39.787524c-78.999101 79.013264-180.431794 118.517535-281.869208 118.522256z"
          fill="#885F44" p-id="43018"></path>
    <path d="M583.731364 274.934244l233.050652-233.060094c18.062063-18.052621 47.605291-18.052621 65.657912 0l26.2575 26.262221c18.043179 18.052621 18.043179 47.595849 0 65.64847L675.651496 366.849656"
          fill="#FFDB70" p-id="43019"></path>
    <path d="M695.682163 386.880323l-40.061334-40.056614 233.050652-233.064815c6.934964-6.934964 6.934964-18.656893 0-25.591856l-26.257499-26.2575c-6.939684-6.939684-18.656893-6.939684-25.60602 0.004721L603.766752 294.969632l-40.061335-40.056613 233.050653-233.060095c29.160837-29.146674 76.586735-29.132512 105.719246 0l26.262221 26.262221c29.132512 29.146674 29.132512 76.558409 0 105.700363l-233.055374 233.064815z"
          fill="#885F44" p-id="43020"></path>
    <path d="M797.105414 488.298853l233.055374-233.055373c18.0479-18.052621 47.586407-18.057342 65.643749 0l26.2575 26.2575c18.052621 18.052621 18.052621 47.60057 0 65.64847L889.016105 580.204823"
          fill="#FFDB70" p-id="43021"></path>
    <path d="M909.046772 600.23077l-40.061334-40.051893 233.045932-233.055374a17.93932 17.93932 0 0 0 5.24489-12.793567 17.972366 17.972366 0 0 0-5.24017-12.798289l-26.257499-26.2575c-3.380146-3.380146-7.926347-5.244891-12.793568-5.24489s-9.408701 1.864745-12.788847 5.240169l-233.060094 233.060095-40.051893-40.056614 233.055373-233.055373c14.072925-14.077645 32.843119-21.834041 52.84074-21.834041 20.002342 0 38.772536 7.756396 52.854902 21.834041l26.2575 26.257499c14.077645 14.082366 21.834041 32.85256 21.834041 52.854903s-7.756396 38.772536-21.838762 52.854902l-233.041211 233.045932z"
          fill="#885F44" p-id="43022"></path>
    <path d="M1001.434271 855.115463c-28.877585 28.887026-76.157135 28.887026-105.029999 0L308.820724 267.541356c-28.882305-28.882305-28.882305-76.142972 0-105.029999l15.602487-15.602487c28.882305-28.882305 76.142972-28.882305 105.029999 0l587.58827 587.59299c28.877585 28.877585 28.877585 76.142972 0 105.029999l-15.607209 15.583604z"
          fill="#EBEBFF" p-id="43023"></path>
    <path d="M948.919272 905.104795c-27.466043 0-53.232572-10.640849-72.550388-29.968106L288.790056 287.572023c-39.995242-39.999963-39.995242-105.081928 0-145.086612l15.607209-15.607209c19.317815-19.317815 45.079623-29.953944 72.540946-29.953943s53.22313 10.636129 72.545666 29.953943l587.58827 587.597712c39.999963 39.995242 39.999963 105.077207 0.004721 145.081891l-15.630813 15.602488c-19.298932 19.303653-45.065461 29.944502-72.526783 29.944502zM376.93349 153.574743c-12.326201 0-23.864017 4.744478-32.484332 13.364794l-15.607209 15.602488c-17.906274 17.910995-17.906274 47.057669 0 64.968664l587.578828 587.578828c8.620315 8.620315 20.158131 13.364794 32.489053 13.364793 12.326201 0 23.868738-4.744478 32.484332-13.364793l15.630813-15.602488c17.892111-17.896832 17.892111-47.048228-0.014162-64.959222L409.422543 166.939537c-8.615595-8.620315-20.158131-13.364794-32.489053-13.364794z"
          fill="#885F44" p-id="43024"></path>
    <path d="M558.819313 964.101554c-1.066917 0-2.124393-0.004721-3.191311-0.014163-104.416285-0.854478-203.762352-43.167669-279.735373-119.145411-75.977742-75.973021-118.286212-175.319088-119.135969-279.730652-0.86392-105.893919 41.364296-206.915896 118.909367-284.456246l39.782803-39.782803 40.056614 40.056613-39.782803 39.782803c-66.715388 66.715388-103.056674 153.348141-102.315496 243.936988 0.731735 89.455836 37.148555 174.73842 102.546819 240.131963 65.402985 65.402985 150.685569 101.824525 240.141405 102.556261 90.60773 0.9725 177.212158-35.590667 243.932266-102.306055l39.782803-39.792245 40.061335 40.051893-39.787524 39.792245c-76.766128 76.766128-176.541794 118.914088-281.264936 118.918809z"
          fill="#885F44" opacity=".15" p-id="43025"></path>
    <path d="M948.914551 840.72624c-27.466043 0-53.232572-10.640849-72.545667-29.968106L288.790056 223.188747l40.056614-40.056613 587.578828 587.583549c8.620315 8.620315 20.158131 13.364794 32.484332 13.364793 12.330922 0 23.873458-4.744478 32.489053-13.364793l15.621371-15.607209 40.042451 40.070776-15.611929 15.597767c-19.303653 19.313094-45.070182 29.949223-72.536225 29.949223z"
          fill="#885F44" opacity=".15" p-id="43026"></path>
    <path d="M1104.495666 263.915725l40.051892 40.056614-265.879608 265.879608-40.051893-40.056613z" fill="#885F44"
          opacity=".15" p-id="43027"></path>
    <path d="M891.63619 46.042681l40.056614 40.056614-279.01308 279.008358-40.051892-40.051892z" fill="#885F44"
          opacity=".15" p-id="43028"></path>
    <path d="M325.617592 328.799414L799.196761 802.373862l-40.056613 40.061334L285.560979 368.860748z" fill="#885F44"
          opacity=".15" p-id="43029"></path>
    <path d="M29.51495 1024H28.278081a28.325242 28.325242 0 0 1 0.094418-56.650485h1.109405c151.270957 0 243.51683-111.08688 244.432679-112.215168 9.866626-12.094878 27.687924-13.978507 39.815849-4.144927a28.292196 28.292196 0 0 1 4.248787 39.749756c-4.395133 5.452609-109.462899 133.260824-288.464269 133.260824z"
          fill="#885F44" p-id="43030"></path>
</svg>