<svg t="1737779369070" class="icon" viewBox="0 0 1024 1024" version="1.1" xmlns="http://www.w3.org/2000/svg" p-id="4229"
     width="256" height="256">
    <path d="M865.088 58.752a102.4 102.4 0 0 1 102.4 102.4v704a102.4 102.4 0 0 1-102.4 102.4h-704a102.4 102.4 0 0 1-102.4-102.4v-704a102.4 102.4 0 0 1 102.4-102.4z m-651.776 76.8h-52.224a25.6 25.6 0 0 0-25.6 25.6v704c0 14.144 11.52 25.6 25.6 25.6h704a25.6 25.6 0 0 0 25.6-25.6v-704a25.6 25.6 0 0 0-25.6-25.6h-54.4v266.24c0 27.84-26.752 50.496-59.776 50.496H273.088c-33.024 0-59.776-22.656-59.776-50.56V135.552z m537.6 0H273.024v256.96h477.888V135.552z m-89.6 47.936c19.904 0 29.888 9.92 29.888 29.824v89.6c0 17.728-7.872 27.52-23.616 29.504l-6.272 0.384c-19.84 0-29.824-9.984-29.824-29.888v-89.6c0-17.664 7.872-27.52 23.552-29.44l6.272-0.384z"
          fill="#757590" p-id="4230"></path>
</svg>