<svg t="1715142613481" class="icon" viewBox="0 0 1024 1024" version="1.1" xmlns="http://www.w3.org/2000/svg" p-id="1131"
     width="200" height="200">
    <path d="M777.6256 906.6496H252.8768c-67.9424 0-123.0336-55.9616-123.0336-125.0304V248.2176c0-69.0688 55.0912-125.0304 123.0336-125.0304h524.7488c67.9424 0 123.0336 55.9616 123.0336 125.0304v533.4016c-0.0512 69.0688-55.0912 125.0304-123.0336 125.0304z"
          fill="#7373EF" p-id="1132"></path>
    <path d="M769.1776 869.632H251.0336c-55.296 0-100.1472-45.568-100.1472-101.7856V264.3968c0-69.0688 55.0912-125.0304 123.0336-125.0304h472.4224c67.9424 0 123.0336 55.9616 123.0336 125.0304v503.3984c-0.0512 56.2688-44.9024 101.8368-100.1984 101.8368z"
          fill="#8080F9" p-id="1133"></path>
    <path d="M756.736 838.5024H250.368c-45.2608 0-81.9712-37.3248-81.9712-83.3024V282.2656c0-69.0688 55.0912-125.0304 123.0336-125.0304h424.2432c67.9424 0 123.0336 55.9616 123.0336 125.0304v472.9344c-0.0512 45.9776-36.7104 83.3024-81.9712 83.3024z"
          fill="#8D8DFF" p-id="1134"></path>
    <path d="M728.9344 810.2912H261.8368c-45.2608 0-81.9712-37.3248-81.9712-83.3024V293.888c0-69.0688 55.0912-125.0304 123.0336-125.0304h385.024c67.9424 0 123.0336 55.9616 123.0336 125.0304v433.1008c-0.0512 45.9776-36.7104 83.3024-82.0224 83.3024z"
          fill="#9A9AFC" p-id="1135"></path>
    <path d="M681.984 469.3504H378.5728c-39.2704 0-71.0656-31.8464-71.0656-71.0656V123.1872h445.5936v275.0976c-0.0512 39.2704-31.8464 71.0656-71.1168 71.0656z"
          fill="#7373EF" p-id="1136"></path>
    <path d="M674.9184 447.744h-289.28c-30.6688 0-55.552-24.8832-55.552-55.552V123.1872h400.4352V392.192c0 30.6688-24.8832 55.552-55.6032 55.552z"
          fill="#FAB001" p-id="1137"></path>
    <path d="M649.5232 427.1616H394.8032c-30.6688 0-55.552-24.8832-55.552-55.552V123.1872h365.824v248.3712c0 30.72-24.8832 55.6032-55.552 55.6032z"
          fill="#FCB830" p-id="1138"></path>
    <path d="M630.6816 411.4944H406.1696c-30.6688 0-55.552-24.8832-55.552-55.552V123.1872h335.616v232.7552c0 30.6688-24.8832 55.552-55.552 55.552z"
          fill="#FFD629" p-id="1139"></path>
    <path d="M681.4208 592.6912H371.3024c-32.512 0-58.9312 26.88-58.9312 59.904 0 33.024 26.4192 59.904 58.9312 59.904h310.1184c32.512 0 58.9312-26.88 58.9312-59.904 0-33.024-26.4192-59.904-58.9312-59.904z"
          fill="#7373EF" p-id="1140"></path>
    <path d="M681.4208 691.6608H371.3024c-21.248 0-38.4512-17.5104-38.4512-39.0656s17.2032-39.0656 38.4512-39.0656h310.1184c21.248 0 38.4512 17.5104 38.4512 39.0656s-17.2032 39.0656-38.4512 39.0656z"
          fill="#FCAB08" p-id="1141"></path>
    <path d="M681.4208 678.656H371.3024c-14.1312 0-25.6512-11.6736-25.6512-26.0608s11.4688-26.0608 25.6512-26.0608h310.1184c14.1312 0 25.6512 11.6736 25.6512 26.0608s-11.52 26.0608-25.6512 26.0608z"
          fill="#FFD629" p-id="1142"></path>
</svg>