<?xml version="1.0" standalone="no"?><!DOCTYPE svg PUBLIC "-//W3C//DTD SVG 1.1//EN"
        "http://www.w3.org/Graphics/SVG/1.1/DTD/svg11.dtd">
<svg t="1655310750386" class="icon" viewBox="0 0 1024 1024" version="1.1" xmlns="http://www.w3.org/2000/svg" p-id="1935"
     xmlns:xlink="http://www.w3.org/1999/xlink" width="12" height="12">
    <defs>
        <style type="text/css">@font-face { font-family: feedback-iconfont; src:
            url("//at.alicdn.com/t/font_1031158_u69w8yhxdu.woff2?t=1630033759944") format("woff2"),
            url("//at.alicdn.com/t/font_1031158_u69w8yhxdu.woff?t=1630033759944") format("woff"),
            url("//at.alicdn.com/t/font_1031158_u69w8yhxdu.ttf?t=1630033759944") format("truetype"); }
        </style>
    </defs>
    <path d="M960 0l-896 0c-35.2 0-64 28.8-64 64l0 97.344c0-35.2 28.8-64 64-64l896 0c35.2 0 64 28.8 64 64l0-97.344c0-35.2-28.8-64-64-64zM969.92 144.384l-915.84 0c-29.76 0-54.08 26.432-54.08 58.752l0 259.264c52.352 16.064 90.688 64.192 90.688 121.792s-38.336 105.792-90.688 121.792l0 259.264c0 32.32 24.32 58.752 54.08 58.752l105.92 0 0-46.528c0-8.064 6.08-14.72 13.504-14.72l11.84 0c7.424 0 13.504 6.592 13.504 14.72l0 46.528 84.224 0 0-46.528c0-8.064 6.08-14.72 13.504-14.72l11.84 0c7.424 0 13.504 6.592 13.504 14.72l0 46.528 84.224 0 0-46.528c0-8.064 6.08-14.72 13.504-14.72l11.84 0c7.424 0 13.504 6.592 13.504 14.72l0 46.528 84.224 0 0-46.528c0-8.064 6.08-14.72 13.504-14.72l11.84 0c7.424 0 13.504 6.592 13.504 14.72l0 46.528 84.224 0 0-46.528c0-8.064 6.08-14.72 13.504-14.72l11.84 0c7.424 0 13.504 6.592 13.504 14.72l0 46.528 84.224 0 0-46.528c0-8.064 6.08-14.72 13.504-14.72l11.84 0c7.424 0 13.504 6.592 13.504 14.72l0 46.528 84.224 0 0-46.528c0-8.064 6.08-14.72 13.504-14.72l11.84 0c7.424 0 13.504 6.592 13.504 14.72l0 46.528 32.64 0c29.76 0 54.08-26.432 54.08-58.752l0-259.264c-52.352-16.064-90.688-64.192-90.688-121.792s38.336-105.792 90.688-121.792l0-259.264c0-32.32-24.32-58.752-54.08-58.752zM378.688 731.008l-136.896 0 0-293.632 136.896 0 0 293.632zM580.48 731.008l-136.96 0 0-293.632 136.96 0 0 293.632zM782.208 731.008l-136.896 0 0-293.632 136.896 0 0 293.632z"
          p-id="1936" fill="#707070"></path>
</svg>
