<svg t="1715098462048" class="icon" viewBox="0 0 1024 1024" version="1.1" xmlns="http://www.w3.org/2000/svg"
     p-id="17027" width="200" height="200">
    <path d="M147.968 165.034667m79.701333 0l574.464 0q79.701333 0 79.701334 79.701333l0 574.464q0 79.701333-79.701334 79.701333l-574.464 0q-79.701333 0-79.701333-79.701333l0-574.464q0-79.701333 79.701333-79.701333Z"
          fill="#F39202" p-id="17028"></path>
    <path d="M250.368 45.568m34.133333 0l0 0q34.133333 0 34.133334 34.133333l0 136.533334q0 34.133333-34.133334 34.133333l0 0q-34.133333 0-34.133333-34.133333l0-136.533334q0-34.133333 34.133333-34.133333Z"
          fill="#F39202" p-id="17029"></path>
    <path d="M403.968 45.568m34.133333 0l0 0q34.133333 0 34.133334 34.133333l0 136.533334q0 34.133333-34.133334 34.133333l0 0q-34.133333 0-34.133333-34.133333l0-136.533334q0-34.133333 34.133333-34.133333Z"
          fill="#F39202" p-id="17030"></path>
    <path d="M557.568 45.568m34.133333 0l0 0q34.133333 0 34.133334 34.133333l0 136.533334q0 34.133333-34.133334 34.133333l0 0q-34.133333 0-34.133333-34.133333l0-136.533334q0-34.133333 34.133333-34.133333Z"
          fill="#F39202" p-id="17031"></path>
    <path d="M711.168 45.568m34.133333 0l0 0q34.133333 0 34.133334 34.133333l0 136.533334q0 34.133333-34.133334 34.133333l0 0q-34.133333 0-34.133333-34.133333l0-136.533334q0-34.133333 34.133333-34.133333Z"
          fill="#F39202" p-id="17032"></path>
    <path d="M250.368 813.568m34.133333 0l0 0q34.133333 0 34.133334 34.133333l0 136.533334q0 34.133333-34.133334 34.133333l0 0q-34.133333 0-34.133333-34.133333l0-136.533334q0-34.133333 34.133333-34.133333Z"
          fill="#F39202" p-id="17033"></path>
    <path d="M403.968 813.568m34.133333 0l0 0q34.133333 0 34.133334 34.133333l0 136.533334q0 34.133333-34.133334 34.133333l0 0q-34.133333 0-34.133333-34.133333l0-136.533334q0-34.133333 34.133333-34.133333Z"
          fill="#F39202" p-id="17034"></path>
    <path d="M557.568 813.568m34.133333 0l0 0q34.133333 0 34.133334 34.133333l0 136.533334q0 34.133333-34.133334 34.133333l0 0q-34.133333 0-34.133333-34.133333l0-136.533334q0-34.133333 34.133333-34.133333Z"
          fill="#F39202" p-id="17035"></path>
    <path d="M711.168 813.568m34.133333 0l0 0q34.133333 0 34.133334 34.133333l0 136.533334q0 34.133333-34.133334 34.133333l0 0q-34.133333 0-34.133333-34.133333l0-136.533334q0-34.133333 34.133333-34.133333Z"
          fill="#F39202" p-id="17036"></path>
    <path d="M199.168 216.234667m64 0l503.466667 0q64 0 64 64l0 503.466666q0 64-64 64l-503.466667 0q-64 0-64-64l0-503.466666q0-64 64-64Z"
          fill="#FFDD3F" p-id="17037"></path>
</svg>