<svg t="1737819586878" class="icon" viewBox="0 0 1024 1024" version="1.1" xmlns="http://www.w3.org/2000/svg"
     p-id="14577" width="256" height="256">
    <path d="M460.16 483.2L194.432 335.872c-55.424-30.72-55.424-70.656 0-101.376L460.16 74.688a89.408 89.408 0 0 1 84.8 0l314.368 159.808c55.488 30.72 26.496 70.656-28.992 101.376L540.288 483.2c-25.728 14.208-54.4 14.208-80.128 0z m5.376 145.664v260.352c0 55.424 0 114.496-58.624 79.808l-274.88-147.648A71.936 71.936 0 0 1 96 759.04V498.688c0-55.36 8.96-97.536 56.96-69.76l276.544 137.6c22.272 12.864 36.032 36.672 36.032 62.336z m160.512-62.272l276.288-139.328c48-27.712 50.56-0.448 50.56 54.976v302.016c0 25.728-7.168 24.32-29.44 37.12l-265.28 124.16c-48 27.776-68.16 28.608-68.16-26.816V628.864c0-25.664 13.76-49.472 36.032-62.272z"
          fill="#FFFFFF" p-id="14578"></path>
</svg>