<svg t="1715142996077" class="icon" viewBox="0 0 1024 1024" version="1.1" xmlns="http://www.w3.org/2000/svg"
     p-id="34173" width="200" height="200">
    <path d="M512 627.2c-134.4 0-249.6-108.8-249.6-249.6C262.4 243.2 377.6 128 512 128c134.4 0 249.6 108.8 249.6 249.6S646.4 627.2 512 627.2"
          fill="#FE6D68" p-id="34174"></path>
    <path d="M377.6 896C243.2 896 128 780.8 128 646.4 128 512 236.8 396.8 377.6 396.8c134.4 0 249.6 108.8 249.6 249.6 0 134.4-108.8 249.6-249.6 249.6"
          fill="#5B8FD9" p-id="34175"></path>
    <path d="M646.4 896c-134.4 0-249.6-108.8-249.6-249.6 0-134.4 108.8-249.6 249.6-249.6 134.4 0 249.6 108.8 249.6 249.6 0 134.4-115.2 249.6-249.6 249.6"
          fill="#f2a942" p-id="34176"></path>
</svg>