<?xml version="1.0" encoding="utf-8"?>
<!-- Generator: Adobe Illustrator 22.0.0, SVG Export Plug-In . SVG Version: 6.00 Build 0)  -->
<svg version="1.1" xmlns="http://www.w3.org/2000/svg" xmlns:xlink="http://www.w3.org/1999/xlink" x="0px" y="0px"
     viewBox="130 50 550 500" width="64" height="64">
    <g>
        <path fill="#ff9900"  d="M525.1,480l-28.3-44.5l-18.4,7.5l-1,55.1L439,513.7l2-150.4l59.4-27.5c33.9-10.2,62.1-20.2,61.4,21.4
		c-0.4,22.9-11.6,42.1-28.2,56.4l29.8,47.5L525.1,480z M479.9,417.4l25.9-13.6c5.2-2.3,17.4-11.7,16.9-26.3
		c-0.6-18.5-6-16.2-27.5-6.5l-16.6,7.5L479.9,417.4z"/>
        <polygon fill="#389FD6" points="569,314.5 654,269.8 652.1,312.3 605.2,337.6 604.7,364.3 651.6,338.5 650.3,374.4 609,400.3
		610.1,440.8 570,460.1 	"/>
        <path fill="#D81E06" d="M654,187.1c0.2-5.1-6.4-9.5-19.7-14.4c-25.9-9.5-163-64.1-189.3-73.7c-26.3-9.6-36.9-9.2-67.8,1.9
		c-30.9,11-176.8,68.3-202.8,78.4c-13,5.1-19.3,9.8-19.1,14.9v50.4c0,5,6.9,10.4,20.2,16.7c26.4,12.6,173.2,71.9,196.4,83
		c23.2,11.1,39.5,11.2,68.9-4.1c29.3-15.3,167.3-72,193.9-85.9c13.5-7.1,19.5-12.6,19.5-17.5v-49.7H654z M388.8,139.2l-11.2-20.6
		l34.9,13.6l32.9-10.8l-8.9,21.3l33.5,12.6l-43.2,4.5l-9.7,23.3l-15.6-26l-49.9-4.5L388.8,139.2z M240.9,192.2
		c0-13.2,27.7-23.9,61.8-23.9v0c34.1,0,61.8,10.7,61.8,23.9c0,13.2-27.6,23.9-61.8,23.9C268.6,216.2,240.9,205.4,240.9,192.2
		 M414.5,268.3l-80.6-33.4h0l115.6-17.8L414.5,268.3z M521.1,215.8l-7.4,2.9l-68.3-27l75.7-29.9l68.4,27h0L521.1,215.8z"/>
        <path fill="#ff9900" d="M175.4,346.6c26.4,12.6,173.2,71.9,196.4,83c17.8,8.5,31.5,10.5,50.2,4.2v-50.4c-18.7,6.4-32.4,4.4-50.2-4.1
		c-23.2-11.1-170-70.4-196.4-83c-13.2-6.3-19.9-11.6-20.2-16.7v50.4C155.2,334.9,162.2,340.2,175.4,346.6"/>
        <path fill="#389FD6" d="M422,516.7v-51.2c-18.7,6.4-32.4,4.4-50.2-4.2c-23.2-11.1-169.9-70.4-196.4-83c-13.2-6.3-19.9-11.6-20.2-16.7
		v50.4c0,5,6.9,10.4,20.2,16.7c26.4,12.6,173.2,71.9,196.4,83C395,522.9,422,516.7,422,516.7"/>
    </g>
</svg>
