<?xml version="1.0" standalone="no"?><!DOCTYPE svg PUBLIC "-//W3C//DTD SVG 1.1//EN"
        "http://www.w3.org/Graphics/SVG/1.1/DTD/svg11.dtd">
<svg t="1654262584591" class="icon" viewBox="0 0 1024 1024" version="1.1" xmlns="http://www.w3.org/2000/svg"
     p-id="26164" xmlns:xlink="http://www.w3.org/1999/xlink" width="24" height="24">
    <path d="M433.1 480 174.9 480c-25.9 0-46.9-21-46.9-46.9L128 174.9c0-25.9 21-46.9 46.9-46.9l258.2 0c25.9 0 46.9 21 46.9 46.9l0 258.2C480 459 459 480 433.1 480z"
          p-id="26165" fill="#b71905"></path>
    <path d="M433.1 896 174.9 896c-25.9 0-46.9-21-46.9-46.9L128 590.9c0-25.9 21-46.9 46.9-46.9l258.2 0c25.9 0 46.9 21 46.9 46.9l0 258.2C480 875 459 896 433.1 896z"
          p-id="26166" fill="#b71905"></path>
    <path d="M849.1 480 590.9 480c-25.9 0-46.9-21-46.9-46.9L544 174.9c0-25.9 21-46.9 46.9-46.9l258.2 0c25.9 0 46.9 21 46.9 46.9l0 258.2C896 459 875 480 849.1 480z"
          p-id="26167" fill="#b71905"></path>
    <path d="M849.1 896 590.9 896c-25.9 0-46.9-21-46.9-46.9L544 590.9c0-25.9 21-46.9 46.9-46.9l258.2 0c25.9 0 46.9 21 46.9 46.9l0 258.2C896 875 875 896 849.1 896z"
          p-id="26168" fill="#b71905"></path>
</svg>
