<?xml version="1.0" standalone="no"?><!DOCTYPE svg PUBLIC "-//W3C//DTD SVG 1.1//EN"
        "http://www.w3.org/Graphics/SVG/1.1/DTD/svg11.dtd">
<svg class="icon" viewBox="0 0 1680 1024" version="1.1" xmlns="http://www.w3.org/2000/svg"
     width="16" height="12" xmlns:xlink="http://www.w3.org/1999/xlink">
    <path d="M682.305775 776.699593c-58.429526 92.052131-18.861461 168.113023 61.504764 210.55131s172.008325 35.672763 229.207756-56.379367S1396.991139 17.320767 1365.418693 0.304449 740.530285 684.852478 682.305775 776.699593z m157.042165-584.295263a763.479144 763.479144 0 0 1 107.838354 7.995619C984.089153 157.756646 1025.092329 111.423056 1066.095505 67.754674a875.417815 875.417815 0 0 0-225.517469-29.522287c-471.536528 0-840.565115 363.698174-840.565116 828.469178a830.314321 830.314321 0 0 0 3.895302 85.081591 83.236448 83.236448 0 0 0 91.027052 70.115431 78.931114 78.931114 0 0 0 76.060892-82.006352c-1.845143-23.781842-2.870222-47.358669-2.870222-71.140511A664.661489 664.661489 0 0 1 839.34794 192.40433z m607.052026 95.947432c-23.576826 57.404447-48.383748 116.654037-70.115432 167.087944a679.217616 679.217616 0 0 1 135.515498 411.261859 583.885231 583.885231 0 0 1-4.100317 73.19067 79.751178 79.751178 0 0 0 76.265908 84.056511h7.790603a82.006353 82.006353 0 0 0 84.056512-70.320447 807.147526 807.147526 0 0 0 4.100317-86.926734 815.758193 815.758193 0 0 0-233.513089-578.349803z"
          fill="#b71905"></path>
</svg>