<svg t="1742059508012" class="icon" viewBox="0 0 1024 1024" version="1.1" xmlns="http://www.w3.org/2000/svg" p-id="1072"
     width="200" height="200">
    <path d="M131.8912 132.096m132.352 0l493.568 0q132.352 0 132.352 132.352l0 510.464q0 132.352-132.352 132.352l-493.568 0q-132.352 0-132.352-132.352l0-510.464q0-132.352 132.352-132.352Z"
          fill="#F5D126" p-id="1073"></path>
    <path d="M782.592 132.096H684.544c59.4432 0 107.52 58.0608 107.52 129.6896v515.7888c0 71.68-48.128 129.6896-107.52 129.6896h98.048c59.392 0 107.52-58.0608 107.52-129.6896V261.7856c0-71.6288-48.128-129.6896-107.52-129.6896z"
          fill="#F2B200" p-id="1074"></path>
    <path d="M757.76 922.624H264.2432a147.8656 147.8656 0 0 1-147.712-147.712v-510.464A147.8656 147.8656 0 0 1 264.2432 116.736H757.76a147.8656 147.8656 0 0 1 147.712 147.712v510.464A147.8656 147.8656 0 0 1 757.76 922.624zM264.2432 147.456a117.1456 117.1456 0 0 0-116.992 116.992v510.464a117.1456 117.1456 0 0 0 116.992 116.992H757.76a117.1456 117.1456 0 0 0 116.992-116.992v-510.464A117.1456 117.1456 0 0 0 757.76 147.456z"
          fill="#6A3906" p-id="1075"></path>
    <path d="M719.872 631.6032H302.08a15.36 15.36 0 1 1 0-30.72h417.792a15.36 15.36 0 0 1 0 30.72zM719.872 773.6832H302.08a15.36 15.36 0 0 1 0-30.72h417.792a15.36 15.36 0 1 1 0 30.72z"
          fill="#6A3906" p-id="1076"></path>
    <path d="M452.608 235.52h-24.576a15.36 15.36 0 0 1 0-30.72h24.576a15.36 15.36 0 0 1 0 30.72zM371.5584 235.52H255.488a15.36 15.36 0 0 1 0-30.72h116.0704a15.36 15.36 0 0 1 0 30.72z"
          fill="#F5D126" p-id="1077"></path>
    <path d="M302.1824 300.0832H512v209.8176H302.1824z" fill="#f2f2" p-id="1078"></path>
    <path d="M452.608 300.0832h59.3408v209.8176H452.608z" fill="#f2f2" p-id="1079"></path>
    <path d="M512 525.2096H302.08a15.36 15.36 0 0 1-15.36-15.36v-209.92a15.36 15.36 0 0 1 15.36-15.36h209.92a15.36 15.36 0 0 1 15.36 15.36v209.92a15.36 15.36 0 0 1-15.36 15.36z m-194.56-30.72h179.2v-179.2H317.44z"
          fill="#6A3906" p-id="1080"></path>
</svg>