<svg t="1739534915925" class="icon" viewBox="0 0 1024 1024" version="1.1" xmlns="http://www.w3.org/2000/svg" p-id="4630" width="200" height="200"><path d="M384 448l64-64-146.752-146.752 37.504-37.504a244.992 244.992 0 0 1 346.496 0l5.504 5.504A263.744 263.744 0 0 1 768 391.744V448h128v-56.256c0-103.872-41.28-203.52-114.752-276.992l-5.504-5.504a372.992 372.992 0 0 0-527.488 0l-37.504 37.504L64 0 0 64v384h384zM685.248 824.256a245.056 245.056 0 0 1-346.496 0l-5.504-5.504A263.744 263.744 0 0 1 256 632.256V576H128v56.256c0 103.872 41.28 203.52 114.752 276.992l5.504 5.504a373.056 373.056 0 0 0 527.488 0l37.504-37.504L960 1024l64-64V576h-384l-64 64 146.752 146.752-37.504 37.504z" fill="#F04925" p-id="4631"></path></svg>
