<svg t="1739267249626" class="icon" viewBox="0 0 1024 1024" version="1.1" xmlns="http://www.w3.org/2000/svg"
     p-id="11502" width="200" height="200">
<path fill="#389FD6" d="M456.348092 656.48877c9.816188 0 17.697454 0.035395 25.614115 0 40.574363-0.20647 81.172323 0.359848 121.72309-0.825882a375.775941 375.775941 0 0 0 238.803546-92.917533c16.718195-14.258249 32.645904-29.495757 48.685696-44.503197 10.465095-9.810289 21.997935-15.514768 35.984823-8.878223s16.163675 19.390511 15.845121 33.583868a333.125077 333.125077 0 0 1-71.143766 199.981231 341.366192 341.366192 0 0 1-143.726923 108.048857 351.235472 351.235472 0 0 1-134.500651 24.245512c-40.957808 0.165176-81.921515 0.035395-122.885222 0.035395h-13.650637v13.308485c0 31.483771 0.241865 62.961642-0.058991 94.439514-0.336252 35.347715-29.424967 51.78865-59.428051 33.454088q-177.098423-108.214033-353.949081-216.793813c-30.675587-18.830091-30.746377-49.824232-0.088488-68.713315q175.747517-108.255327 351.754598-216.062317c30.929251-18.936276 60.578385-2.212182 60.997225 34.179683 0.34805 30.716881 0.064891 61.445561 0.06489 92.162441z"
      p-id="11503"></path>
<path fill="#389FD6" d="M566.986676 368.397814c-3.734163-0.359848-5.952244-0.76689-8.170325-0.760991-47.016236 0.20647-94.073767-0.643007-141.04281 0.937965-96.339041 3.244533-179.605562 39.117273-250.507462 104.108224-12.576991 11.532841-25.130385 23.095178-37.418317 34.934774a27.448751 27.448751 0 0 1-32.274257 6.689638 28.315927 28.315927 0 0 1-16.671002-28.610885 341.920712 341.920712 0 0 1 217.206753-313.475004 368.166036 368.166036 0 0 1 133.491896-23.342941c40.580262-0.176975 81.160524-0.029496 121.734888-0.029496h13.644737v-13.332082c0-31.477872-0.230067-62.955743 0.07079-94.427716 0.342151-35.4539 29.354177-51.865339 59.422151-33.489482q177.063028 108.219932 353.913687 216.787913c30.469117 18.70031 30.622495 48.856772 0.34805 67.4273q-176.384626 108.208133-352.928529 216.197998c-13.503157 8.258812-27.136096 11.53874-41.77779 3.315323s-19.160444-21.472911-19.089653-37.335729c0.153378-34.799094 0.047193-69.633583 0.047193-105.594809z"
      p-id="11504"></path>
</svg>
