<svg t="1739267176972" class="icon" viewBox="0 0 1024 1024" version="1.1" xmlns="http://www.w3.org/2000/svg" p-id="5207"
     width="64" height="64">
    <path d="M661.674667 770.616889l-40.220445 40.220444a56.888889 56.888889 0 0 1-80.440889 0l-157.980444-157.980444a28.444444 28.444444 0 0 0-40.277333 0l-151.950223 151.893333a28.444444 28.444444 0 0 1-48.583111-20.081778V239.331556a28.444444 28.444444 0 0 1 48.583111-20.081778l470.869334 470.869333a56.888889 56.888889 0 0 1 0 80.497778z"
          fill="#389FD6" opacity=".9" p-id="5208"></path>
    <path d="M853.333333 182.442667v545.336889a28.444444 28.444444 0 0 1-48.583111 20.081777L333.994667 277.048889a56.888889 56.888889 0 0 1 0-80.497778l40.220444-40.220444a56.888889 56.888889 0 0 1 80.440889 0l157.980444 157.980444a28.444444 28.444444 0 0 0 40.220445 0l151.893333-151.893333a28.444444 28.444444 0 0 1 48.583111 20.081778z"
          fill="#9571E9" opacity=".9" p-id="5209"></path>
</svg>
