<?xml version="1.0" standalone="no"?><!DOCTYPE svg PUBLIC "-//W3C//DTD SVG 1.1//EN"
        "http://www.w3.org/Graphics/SVG/1.1/DTD/svg11.dtd">
<svg class="icon" viewBox="0 0 1024 1024" version="1.1" xmlns="http://www.w3.org/2000/svg"
     xmlns:xlink="http://www.w3.org/1999/xlink" width="16" height="16">
    <path d="M810.666667 938.666667H213.333333c-72.533333 0-128-55.466667-128-128V213.333333c0-72.533333 55.466667-128 128-128h469.333334c12.8 0 21.333333 4.266667 29.866666 12.8l213.333334 213.333334c8.533333 8.533333 12.8 17.066667 12.8 29.866666v469.333334c0 72.533333-55.466667 128-128 128zM213.333333 170.666667c-25.6 0-42.666667 17.066667-42.666666 42.666666v597.333334c0 25.6 17.066667 42.666667 42.666666 42.666666h597.333334c25.6 0 42.666667-17.066667 42.666666-42.666666V358.4L665.6 170.666667H213.333333z"
          fill="#6E6E6E"></path>
    <path d="M725.333333 938.666667c-25.6 0-42.666667-17.066667-42.666666-42.666667v-298.666667H341.333333v298.666667c0 25.6-17.066667 42.666667-42.666666 42.666667s-42.666667-17.066667-42.666667-42.666667v-341.333333c0-25.6 17.066667-42.666667 42.666667-42.666667h426.666666c25.6 0 42.666667 17.066667 42.666667 42.666667v341.333333c0 25.6-17.066667 42.666667-42.666667 42.666667zM640 384H298.666667c-25.6 0-42.666667-17.066667-42.666667-42.666667V128c0-25.6 17.066667-42.666667 42.666667-42.666667s42.666667 17.066667 42.666666 42.666667v170.666667h298.666667c25.6 0 42.666667 17.066667 42.666667 42.666666s-17.066667 42.666667-42.666667 42.666667z"
          fill="#6E6E6E"></path>
</svg>