<svg class="icon" viewBox="0 0 1024 1024" version="1.1" xmlns="http://www.w3.org/2000/svg"
     width="200" height="200">
    <path d="M960.9 371.1c3.9 12.2-2.7 25.6-14.9 29.6-47.1 15.4-81.2 59.7-81.2 112s34.1 96.6 81.2 112c12.2 4 18.8 17.4 14.9 29.7-8.4 26.5-19.1 52-31.8 76.3-6.1 11.6-20.4 15.8-32.2 9.9-44.1-22.1-99.1-15-136 21.7C724 799 716.5 854 738.4 898.1c5.8 11.8 1.5 26.1-10.1 32.1-24.3 12.6-49.9 23.1-76.5 31.4-12.3 3.8-25.7-2.8-29.6-15.1C607 899.3 563 865 510.7 864.7c-52.3-0.3-96.7 33.5-112.4 80.6-4.1 12.2-17.5 18.7-29.8 14.8-26.5-8.5-51.9-19.3-76.1-32.2-11.6-6.2-15.7-20.5-9.8-32.2 22.4-43.9 15.5-99-20.9-136.1-36.4-37-91.4-44.9-135.7-23.2-11.8 5.8-26.1 1.4-32.1-10.3-12.4-24.4-22.8-50-30.9-76.6-3.7-12.3 3-25.7 15.2-29.5 47.3-14.9 81.8-58.8 82.4-111.1 0.5-52.3-33-96.9-79.9-112.8-12.2-4.1-18.6-17.6-14.6-29.9 8.7-26.4 19.6-51.8 32.5-75.9 6.3-11.7 20.8-15.6 32.6-9.5 16.8 8.7 35.3 13 53.8 13 29.6 0 59.2-11.1 82.1-33.4 37.3-36.3 45.4-91.1 24-135.5-5.7-11.8-1.2-26.1 10.5-32 24.5-12.3 50.2-22.6 76.9-30.5 12.3-3.7 25.6 3.1 29.4 15.4 14.6 47.4 58.3 82.1 110.6 83h2c51.3 0 95.2-33 111.2-79.2 4.2-12.2 17.7-18.6 30-14.5 26.4 8.8 51.7 19.9 75.7 33 11.5 6.3 15.5 20.7 9.4 32.3-22.8 43.7-16.6 98.9 19.5 136.4 23.2 24.1 54.1 36.1 85 36.1 17.2 0 34.5-3.8 50.4-11.3 11.8-5.6 26.1-1.2 32 10.5 10.8 21.4 19.9 43.8 27.2 67zM707.1 512.7c0-87.3-57.5-161.1-136.6-185.7-18.3-5.7-37.7-8.7-57.8-8.7-107.4 0-194.5 87.1-194.5 194.5s87.1 194.5 194.5 194.5c18.6 0 36.7-2.6 53.7-7.5 81.3-23.5 140.7-98.3 140.7-187.1z"
          fill="#F3D925" ></path>
    <path d="M512.7 667.3c-20.8 0-41-4.1-60-12.1C395.2 631 358 575 358 512.6c0-62.3 37.1-118.2 94.4-142.5 19.1-8.1 39.3-12.2 60.2-12.2 10.2 0 18.5 8.3 18.5 18.5s-8.3 18.5-18.5 18.5c-15.9 0-31.3 3.1-45.8 9.2-43.7 18.5-71.9 61-71.9 108.5s28.3 90.1 72.1 108.5c14.5 6.1 29.8 9.2 45.6 9.2 10.2 0 18.5 8.3 18.5 18.5s-8.2 18.5-18.4 18.5z"
          fill="#F3D925" ></path>
    <path d="M512.7 725.6c-56.9 0-110.3-22.1-150.6-62.4-40.2-40.2-62.4-93.7-62.4-150.6 0-117.4 95.5-212.9 212.9-212.9 21.6 0 42.9 3.2 63.3 9.6 42.4 13.2 80.5 40.2 107.3 75.9 27.7 37 42.3 81.1 42.3 127.4 0 47.2-15.1 91.8-43.7 129.2-27.7 36.2-66.9 63-110.4 75.5-19 5.5-38.8 8.3-58.7 8.3z m0-388.9c-97 0-176 78.9-176 176 0 97 78.9 176 176 176 16.5 0 32.9-2.3 48.7-6.8 36-10.3 68.4-32.5 91.3-62.4 23.6-30.9 36.1-67.8 36.1-106.8 0-38.3-12.1-74.7-35-105.3-22.1-29.6-53.6-51.9-88.7-62.8-16.9-5.2-34.6-7.9-52.4-7.9z"
          fill="#6A3906" ></path>
    <path d="M644.7 981.2c-17.8 0-34.5-11.3-40.1-29-13.2-41-51-68.8-94-69-43.1-0.2-81.1 27.1-94.8 68-7.2 21.7-31 33.5-52.9 26.5-27.3-8.8-53.9-20-79.1-33.5-20.2-10.7-28.1-36.3-17.6-56.9 19.5-38.1 12.4-84.3-17.7-114.8-30-30.5-76-38.4-114.4-19.6-10 4.9-21.3 5.7-31.9 2.4-10.8-3.4-19.6-10.8-24.7-20.9-13-25.5-23.8-52.3-32.1-79.6-6.7-22.1 5.6-45.6 27.3-52.5 41.1-13 69-50.6 69.5-93.7 0.4-43-26.6-81.3-67.4-95.1-21.6-7.3-33.4-31.1-26.2-53.1 8.9-27.2 20.3-53.8 33.8-78.9 11-20.5 36.2-28 57.3-17.2 14 7.2 29.7 11 45.4 11 26 0 50.6-10 69.2-28.2 30.7-29.8 38.8-75.7 20.3-114.3-10-20.9-1.6-46.2 18.8-56.5 25.6-12.9 52.5-23.5 79.9-31.7 22.1-6.6 45.6 5.8 52.3 27.7 12.7 41.1 50.1 69.2 93.1 70h1.9c42.2 0 79.9-26.9 93.8-66.8 7.5-21.6 31.4-33.2 53.3-25.9 27.1 9.1 53.6 20.6 78.7 34.3 20.1 11 27.7 36.6 17 57.1-19.8 37.9-13.2 84.2 16.4 115 18.9 19.6 44.4 30.5 71.7 30.5 14.6 0.1 29.3-3.3 42.5-9.5 10-4.8 21.3-5.5 31.8-2.1 10.8 3.5 19.5 11 24.6 21.1 11.2 22.5 20.7 45.9 28.2 69.7 7 22-5.1 45.6-26.8 52.7-41 13.4-68.5 51.3-68.5 94.4 0 43.1 27.5 81 68.5 94.4 21.7 7.1 33.7 30.8 26.8 52.8-8.6 27.2-19.7 53.9-33.1 79.3-5.2 10-14.1 17.3-24.9 20.6-10.6 3.2-21.9 2.2-31.9-2.8-38.3-19.2-84.4-11.9-114.7 18.3-30.3 30.2-37.9 76.3-18.9 114.6 5 10 5.9 21.3 2.6 31.9-3.4 10.8-10.7 19.6-20.8 24.8-25.5 13.2-52.2 24.2-79.5 32.6-4.3 1.3-8.5 1.9-12.7 1.9z m-134.6-135h0.7c59.1 0.4 110.9 38.4 129 94.7 0.8 2.5 3.8 3.9 6.6 3.1 25.2-7.8 49.9-18 73.5-30.1 2.6-1.3 3.5-4.6 2.1-7.5-26-52.5-15.6-115.7 26-157.1 41.6-41.4 104.8-51.5 157.3-25.1 2.9 1.4 6.2 0.5 7.5-2 12.3-23.5 22.6-48.1 30.6-73.3 0.9-2.7-0.5-5.8-3.1-6.6-56.2-18.4-93.9-70.4-93.9-129.5 0-59.1 37.8-111.1 93.9-129.5 2.5-0.8 3.9-3.8 3.1-6.5-7-21.9-15.7-43.6-26-64.4-1.3-2.6-4.6-3.5-7.5-2.1-18.1 8.6-38.1 13.1-58 13.1h-0.4c-37.4 0-72.3-14.8-98.2-41.8-40.7-42.3-49.7-105.7-22.5-157.7 1.5-2.8 0.6-6.2-1.9-7.6-23.2-12.7-47.7-23.3-72.7-31.7-2.7-0.9-5.8 0.5-6.7 3-19 54.8-70.7 91.6-128.6 91.6h-2.3c-59.1-1-110.5-39.6-127.9-96-0.8-2.5-3.8-4-6.5-3.2-25.3 7.5-50.2 17.4-73.8 29.3-2.6 1.3-3.5 4.6-2.2 7.5 25.4 52.9 14.3 115.9-27.8 156.8-25.6 24.9-59.3 38.7-95 38.7-21.6 0-43.1-5.2-62.3-15.1-2.6-1.4-6.3-1-7.9 1.8-12.5 23.2-23 47.7-31.2 72.9-0.9 2.7 0.5 5.8 3 6.6 55.9 19 93.1 71.5 92.5 130.5-0.7 59.1-39 110.8-95.3 128.5-2.5 0.8-4 3.8-3.1 6.6 7.7 25.2 17.6 50 29.7 73.6 1.3 2.6 4.6 3.5 7.5 2.1 52.7-25.7 115.8-14.9 156.9 26.9 40.8 41.7 50.5 105 23.8 157.3-1.5 2.9-0.6 6.2 2 7.6 23.3 12.4 47.9 22.8 73.1 30.9 2.7 0.9 5.8-0.5 6.6-3 18.7-55.9 70.6-93.3 129.4-93.3z"
          fill="#6A3906" ></path>
</svg>