<svg t="1720795548440" class="icon" viewBox="0 0 1024 1024" version="1.1" xmlns="http://www.w3.org/2000/svg"
     p-id="34896" width="256" height="256">
    <path d="M512 1024c-69.1 0-136.2-13.5-199.3-40.2C251.7 958 197 921.1 150 874c-47-47-83.9-101.8-109.7-162.7C13.5 648.2 0 581.1 0 512c0-69.1 13.5-136.2 40.2-199.3C66 251.7 102.9 197 150 150c47-47 101.8-83.9 162.7-109.7C375.8 13.5 442.9 0 512 0s136.2 13.5 199.3 40.2C772.3 66 827 102.9 874 150c47 47 83.9 101.8 109.7 162.7 26.7 63.1 40.2 130.2 40.2 199.3 0 69.1-13.5 136.2-40.2 199.3C958 772.3 921.1 827 874 874c-47 47-101.8 83.9-162.7 109.7-63.1 26.8-130.2 40.3-199.3 40.3z m0-992c-64.8 0-127.7 12.7-186.8 37.7-57.2 24.2-108.5 58.8-152.6 102.9-44.1 44.1-78.7 95.4-102.9 152.6C44.7 384.3 32 447.2 32 512s12.7 127.7 37.7 186.8c24.2 57.2 58.8 108.5 102.9 152.6s95.4 78.7 152.6 102.9c59.2 25 122 37.7 186.8 37.7s127.7-12.7 186.8-37.7c57.2-24.2 108.5-58.8 152.6-102.9 44.1-44.1 78.7-95.4 102.9-152.6 25-59.2 37.7-122 37.7-186.8s-12.7-127.7-37.7-186.8c-24.2-57.2-58.8-108.5-102.9-152.6-44.1-44.1-95.4-78.7-152.6-102.9C639.7 44.7 576.8 32 512 32z"
          fill="#d81e06" p-id="34897"></path>
    <path d="M192 512a320 320 0 1 0 640 0 320 320 0 1 0-640 0z" fill="#d81e06" p-id="34898"></path>
</svg>