<!--<svg class="icon" viewBox="0 0 1024 1024" version="1.1" xmlns="http://www.w3.org/2000/svg"-->
<!--     width="200" height="200">-->
<!--    <path d="M731.428571 292.571429H0v73.142857h292.571429v292.571428H0v73.142857h292.571429v292.571429H0V0h1024v292.571429h-292.571429z m292.571429 365.714285h-292.571429v-292.571428h292.571429v292.571428zM658.285714 1024h-292.571428v-292.571429h292.571428v292.571429z m0-365.714286h-292.571428v-292.571428h292.571428v292.571428z m73.142857 73.142857h292.571429v292.571429h-292.571429v-292.571429z"-->
<!--          fill="#F7D11E"></path>-->
<!--    <path d="M741.705143 740.571429H1024V1024h-282.294857z" fill="#885F44"></path>-->
<!--    <path d="M0 0h1024v292.571429H0z" fill="#885F44"></path>-->
<!--</svg>-->

<svg class="icon" viewBox="0 0 1024 1024" version="1.1" xmlns="http://www.w3.org/2000/svg"
     width="200" height="200">
    <path d="M294.783717 774.546007s-350.424775-320.044373 53.116049-457.206247c403.536597-137.161874 575.059725-239.565255 575.059724-239.565254s39.609891 1364.561392-628.175773 696.771501z"
          fill="#F7D11E"></path>
    <path d="M922.95949 77.77028s-338.541385 552.903034-669.176004 653.468123l66.846182 66.841956c0 0.004226 544.5779-404.859322 602.329822-720.310079z"
          fill="#F1E11E"></path>
    <path d="M254.273697 731.077817s-127.733765-237.604411 29.252071-306.233946c155.671564-68.059031 470.725082-178.364951 639.433722-347.077817 0 0-402.843541 210.676615-621.807257 257.719964-218.963716 47.051801-142.60068 299.873882-46.878536 395.591799z"
          fill="#F1E11E" opacity=".59"></path>
    <path d="M923.525768 78.674634c-13.066658 248.634158-100.590445 1190.684407-669.256297 622.014329 0 0-43.024464-39.309848-80.969329-95.992605 38.473109 94.196573 122.18931 170.67371 122.18931 170.67371 667.789891 667.785665 628.175773-696.775727 628.175773-696.775727s-0.038034 0.029582-0.139457 0.080293z"
          fill="#F1E11E"></path>
    <path d="M860.039222 238.804583c26.644656-49.388755 48.450593-100.552412 63.101984-152.789462-0.004226-0.004226-21.488989 62.628677-63.101984 152.789462zM344.366866 781.616032l53.297765 38.304071c104.753013-58.901383 194.888441-151.373766 269.476575-251.089438 69.466275-4.597841 143.17541-44.571164 143.175411-44.571165-35.028954 15.289511-102.699198 1.977748-111.27789 0.194394 69.462049-100.510152 123.444419-204.286969 161.008947-285.661989-164.829212 305.51976-515.680808 542.824128-515.680808 542.824127z"
          fill="#F1E11E" opacity=".59"></path>
    <path d="M86.739873 946.335369a16.903826 16.903826 0 0 1-6.258642-32.607481c1.39034-0.557826 141.113143-56.978573 312.158737-188.701641 157.560567-121.335666 374.770511-333.292747 514.827165-654.017498 3.739972-8.544884 13.709003-12.453894 22.26234-8.718148s12.462346 13.700551 8.722374 22.253887C795.301793 412.318135 573.299614 628.7336 412.277989 752.558355c-174.624979 134.283997-313.47301 190.256793-319.296379 192.572617a16.865793 16.865793 0 0 1-6.241737 1.204397z"
          fill="#885F44" ></path>
    <path d="M665.733963 420.896827s19.612665-92.780878 47.106738-120.287629l-3.617419 69.897323-43.489319 50.390306z"
          fill="#F1E11E"></path>
    <path d="M612.275612 975.464888c-93.152762 0-203.902407-63.48232-329.185117-188.705867-10.467695-9.618277-173.023342-161.976691-142.545743-307.645415 16.312193-77.9689 84.248671-137.78309 201.916207-177.773317 396.622932-134.812242 570.132259-237.07194 571.839546-238.08617a16.903826 16.903826 0 0 1 25.55436 14.030176c0.050711 1.56783 4.314702 158.528311-15.243026 337.784938-26.509426 242.937568-81.975106 409.376869-164.854567 494.690482-42.365215 43.594968-91.982172 65.705173-147.48166 65.705173z m294.139258-869.131368c-60.845323 32.624385-234.003896 118.554987-553.076298 227.009938-105.517911 35.865694-165.974446 87.223745-179.691902 152.628875-26.927796 128.409918 130.945492 274.636469 132.542904 276.09865 0.185942 0.169038 0.371884 0.346528 0.549374 0.524018 118.816996 118.81277 221.609165 179.062234 305.536664 179.062234 46.658787 0 86.961735-18.142032 123.211991-55.453002 163.138829-167.91416 171.472416-657.233451 170.927267-779.870713z"
          fill="#885F44" ></path>
    <path d="M714.121166 446.066625a16.908052 16.908052 0 0 1-16.688303-14.351349c-11.553765-75.560104-0.422596-140.111592 0.067616-142.824656a16.903826 16.903826 0 1 1 33.28786 5.886758c-0.173264 1.01423-10.577569 62.244115 0.067615 131.824491a16.903826 16.903826 0 0 1-16.734788 19.464756zM644.60418 586.186668a516.411899 516.411899 0 0 1-51.400311-2.598963 16.912278 16.912278 0 0 1-15.13315-18.513916c0.938162-9.288653 9.237941-15.995246 18.50969-15.13315 124.137476 12.483476 201.802106-27.789891 202.579682-28.199809a16.908052 16.908052 0 0 1 22.845522 6.968602 16.882697 16.882697 0 0 1-6.909439 22.83707c-3.013107 1.622767-65.946053 34.640166-170.491994 34.640166z"
          fill="#885F44"></path>
    <path d="M381.491895 671.796098s-17.727888-109.650896 11.350919-167.783156l36.786953 135.801116-48.137872 31.98204z"
          fill="#F1E11E"></path>
    <path d="M456.105385 712.694906a16.899601 16.899601 0 0 1-13.184985-6.309353c-73.358381-91.217274-67.129321-213.448843-66.829278-218.608736 0.540922-9.32246 8.578692-16.493909 17.858893-15.889597a16.903826 16.903826 0 0 1 15.889597 17.854666c-0.088745 1.715738-5.443032 114.806563 59.425402 195.458946a16.908052 16.908052 0 0 1-13.159629 27.494074z"
          fill="#885F44"></path>
</svg>