<svg t="1737779617492" class="icon" viewBox="0 0 1024 1024" version="1.1" xmlns="http://www.w3.org/2000/svg"
     p-id="14055" width="256" height="256">
    <path d="M619.221333 750.165333a204.458667 204.458667 0 0 0-214.528 0.341334 45.098667 45.098667 0 0 0-14.890666 60.330666 41.429333 41.429333 0 0 0 57.941333 15.488 122.581333 122.581333 0 0 1 128.64 0 41.130667 41.130667 0 0 0 51.2-6.826666 43.52 43.52 0 0 0 6.570667-8.917334 45.013333 45.013333 0 0 0-14.933334-60.416z m-401.877333-185.045333a45.226667 45.226667 0 0 0-5.930667 61.994667 41.216 41.216 0 0 0 59.733334 6.144 369.834667 369.834667 0 0 1 482.133333 0 41.642667 41.642667 0 0 0 59.733333-6.186667 45.312 45.312 0 0 0-5.888-61.994667 452.266667 452.266667 0 0 0-589.781333 0.042667z m770.645333-186.410667a698.752 698.752 0 0 0-951.978666 0 45.312 45.312 0 0 0-3.669334 62.165334 41.173333 41.173333 0 0 0 59.733334 3.84 616.490667 616.490667 0 0 1 839.893333 0 41.173333 41.173333 0 0 0 57.941333-1.834667c0.64-0.64 1.194667-1.322667 1.792-2.005333a45.269333 45.269333 0 0 0-3.712-62.165334z"
          fill="#00000"   p-id="14056"></path>
</svg>