<svg t="1715142740627" class="icon" viewBox="0 0 1024 1024" version="1.1" xmlns="http://www.w3.org/2000/svg" p-id="1304"
     width="200" height="200">
    <path d="M524.3904 349.0304c134.144 0 256.6144 50.8416 349.2352 134.2464 4.1472 3.7376 10.5472 3.5328 14.336-0.5632l97.4848-104.2432c3.7888-4.0448 3.6864-10.496-0.3072-14.336-259.6352-252.1088-673.1264-252.16-932.8128-0.0512-4.0448 3.8912-4.096 10.3936-0.2048 14.4384L156.16 487.1168c3.8912 4.0448 10.24 4.1984 14.336 0.3584 93.184-85.8624 217.4976-138.4448 353.8944-138.4448z"
          fill="#F70035" p-id="1305"></path>
    <path d="M524.3904 571.0848c75.7248 0 144.896 28.2112 197.7856 74.5984 4.096 3.6352 10.3936 3.2256 14.1312-0.768l95.744-102.3488c3.8912-4.1472 3.6864-10.752-0.5632-14.592-81.6128-73.0112-189.2352-117.504-307.0976-117.504-119.808 0-229.12 45.9776-311.1936 121.1904-4.1984 3.84-4.352 10.4448-0.4096 14.592l96.9728 101.2224c3.7888 3.9424 10.0352 4.3008 14.1312 0.6144 53.1968-47.8208 123.4944-77.0048 200.4992-77.0048z"
          fill="#F70035" p-id="1306"></path>
    <path d="M524.3904 632.5248c-60.16 0-115.1488 22.3744-157.2352 59.2384-4.4032 3.8912-4.7616 10.6496-0.7168 14.8992l154.6752 159.488c4.0448 4.2496 10.8544 4.1984 14.8992-0.1024l144.3328-161.3312c3.9936-4.3008 3.584-11.0592-0.8704-14.848-41.7792-35.6864-95.9488-57.344-155.0848-57.344z"
          fill="#F70035" p-id="1307"></path>
    <path d="M889.2416 455.2192l87.5008-99.0208C716.6464 112.0768 309.248 114.688 52.3264 364.0832c-4.0448 3.8912-4.096 10.3936-0.2048 14.4384l97.2288 101.4784c93.5936-90.8288 220.0064-148.2752 360.3456-152.2688 138.5984-3.9424 266.5984 45.0048 364.6976 128.4608 4.4032 3.7888 11.008 3.3792 14.848-0.9728z"
          fill="#F7264E" p-id="1308"></path>
    <path d="M720.128 626.9952c4.3008 3.6864 10.752 3.1744 14.592-0.9728l92.7232-101.4784c-81.1008-70.912-187.136-114.0224-303.0528-114.0224-119.808 0-229.12 45.9776-311.1936 121.1904-4.1984 3.84-4.352 10.4448-0.4096 14.592l86.6816 90.4704c3.1744 0.6144 6.5536-0.1536 9.0624-2.5088 54.4256-50.0224 126.72-81.0496 206.2848-81.9712 78.2336-0.9216 150.1184 27.392 205.312 74.7008z"
          fill="#F7264E" p-id="1309"></path>
    <path d="M525.8752 854.784l154.4704-163.9936a4.66944 4.66944 0 0 0-0.8704-0.8704c-41.7792-35.7376-95.9488-57.344-155.0848-57.344-60.16 0-115.1488 22.3744-157.2352 59.2384-2.5088 2.2016-3.6352 5.3248-3.4816 8.3968l146.7904 154.7264c4.1984 4.352 11.264 4.3008 15.4112-0.1536z"
          fill="#F7264E" p-id="1310"></path>
    <path d="M885.1968 426.496l72.7552-87.296c-260.608-226.816-654.7968-218.5728-905.5744 24.8832-4.0448 3.8912-4.096 10.3936-0.2048 14.4384l80.1792 83.712C225.28 372.2752 349.5936 313.856 488.6016 305.92c143.3088-8.192 277.248 38.6048 381.2864 122.0608 4.6592 3.7376 11.4688 3.1232 15.3088-1.4848z"
          fill="#FC4C66" p-id="1311"></path>
    <path d="M812.8512 512.256c-79.0528-63.5904-179.3536-101.7344-288.4608-101.7344-119.808 0-229.12 45.9776-311.1936 121.1904-4.1984 3.84-4.352 10.4448-0.4096 14.592l78.1312 81.5616c54.6816-52.6848 128-86.3744 209.664-89.7024 80.9472-3.2768 154.112 18.6368 212.6336 65.9456 4.5568 3.6864 11.264 2.9696 15.0528-1.4336l84.5824-90.4192zM670.5664 682.7008c-40.448-31.3856-91.136-50.1248-146.176-50.1248-60.16 0-115.1488 22.3744-157.2352 59.2384-4.4032 3.8912-4.7616 10.6496-0.7168 14.8992l113.3056 118.272 20.7872 20.48c4.5056 4.4032 14.336 2.9696 21.4016-3.7888l148.6336-158.976z"
          fill="#FC4C66" p-id="1312"></path>
    <path d="M620.3904 691.2512a159.70816 159.70816 0 0 0-98.3552-33.7408c-40.4992 0-77.5168 15.0528-105.7792 39.8336-2.9696 2.6112-3.2256 7.168-0.4608 10.0352l76.2368 79.616 13.9776 13.7728c3.0208 2.9696 9.6256 1.9968 14.3872-2.56l99.9936-106.9568zM80.4864 363.3664c54.3744-49.152 406.3232-339.3536 834.3552-31.744 4.5056 3.2256 5.376 9.6256 1.9968 13.9776-13.312 16.9984-25.3952 30.0544-32.4096 37.376-3.5328 3.6864-9.2672 3.9936-13.2096 0.7168-49.0496-40.7552-360.6016-273.8688-749.5168 26.88-4.1984 3.2256-10.1376 2.6112-13.5168-1.4848a693.248 693.248 0 0 0-28.2112-31.8976c-3.7376-3.8912-3.5328-10.1376 0.512-13.824zM288.3072 579.328c37.1712-29.7472 214.6816-154.368 431.5648-17.8176 4.096 2.56 9.472 2.0992 12.9536-1.28 16.9472-16.3328 27.3408-27.4944 33.4336-34.5088 4.3008-4.9152 3.1232-12.4928-2.4576-15.872-50.688-30.8224-284.1088-154.2656-513.536 25.9584-4.7616 3.7376-5.2736 10.752-1.2288 15.2576 12.0832 13.4656 20.1728 22.1184 25.2416 27.3408 3.6864 3.84 9.7792 4.3008 14.0288 0.9216z"
          fill="#FF5F7E" p-id="1313"></path>
</svg>